<svg width="41" height="42" viewBox="0 0 41 42" fill="none" xmlns="http://www.w3.org/2000/svg">
<g id="Icon">
<g id="Group 1">
<circle id="Ellipse 1" cx="20.5" cy="20.9707" r="20.5" fill="white"/>
<path id="Arrow 1" d="M11.25 25.1717C10.5326 25.5859 10.2867 26.5033 10.701 27.2207C11.1152 27.9381 12.0326 28.184 12.75 27.7697L11.25 25.1717ZM30.7694 16.8589C30.9838 16.0587 30.5089 15.2362 29.7087 15.0218L16.6687 11.5278C15.8685 11.3133 15.046 11.7882 14.8316 12.5884C14.6172 13.3886 15.0921 14.2111 15.8923 14.4255L27.4834 17.5314L24.3776 29.1225C24.1631 29.9227 24.638 30.7452 25.4382 30.9596C26.2384 31.174 27.0609 30.6991 27.2753 29.8989L30.7694 16.8589ZM12.75 27.7697L30.0705 17.7697L28.5705 15.1717L11.25 25.1717L12.75 27.7697Z" fill="black"/>
</g>
</g>
</svg>
