<svg width="41" height="41" viewBox="0 0 41 41" fill="none" xmlns="http://www.w3.org/2000/svg">
<circle cx="20.5" cy="20.5" r="20.5" transform="matrix(-1 0 0 1 41 0)" fill="#191A23"/>
<path d="M29.75 24.701C30.4674 25.1152 30.7133 26.0326 30.299 26.75C29.8848 27.4674 28.9674 27.7133 28.25 27.299L29.75 24.701ZM10.2306 16.3882C10.0162 15.588 10.4911 14.7655 11.2913 14.5511L24.3313 11.0571C25.1315 10.8426 25.954 11.3175 26.1684 12.1177C26.3828 12.9179 25.9079 13.7404 25.1077 13.9548L13.5166 17.0607L16.6224 28.6518C16.8369 29.452 16.362 30.2745 15.5618 30.4889C14.7616 30.7033 13.9391 30.2284 13.7247 29.4282L10.2306 16.3882ZM28.25 27.299L10.9295 17.299L12.4295 14.701L29.75 24.701L28.25 27.299Z" fill="#B9FF66"/>
</svg>
