<svg width="325" height="150" viewBox="0 0 325 150" fill="none" xmlns="http://www.w3.org/2000/svg">
<path d="M421.5 44C421.5 46.8634 420.111 49.7103 417.356 52.5173C414.6 55.326 410.51 58.0593 405.197 60.6783C394.575 65.9154 379.172 70.6456 360.097 74.6232C321.957 82.5768 269.242 87.5 211 87.5C152.758 87.5 100.043 82.5768 61.9025 74.6232C42.828 70.6456 27.4249 65.9154 16.8025 60.6783C11.4904 58.0593 7.39977 55.326 4.64365 52.5173C1.88917 49.7103 0.5 46.8634 0.5 44C0.5 41.1366 1.88917 38.2897 4.64365 35.4827C7.39977 32.674 11.4904 29.9407 16.8025 27.3217C27.4249 22.0846 42.828 17.3544 61.9025 13.3768C100.043 5.42322 152.758 0.5 211 0.5C269.242 0.5 321.957 5.42322 360.097 13.3768C379.172 17.3544 394.575 22.0846 405.197 27.3217C410.51 29.9407 414.6 32.674 417.356 35.4827C420.111 38.2897 421.5 41.1366 421.5 44Z" stroke="black"/>
<path d="M421.5 74.5C421.5 77.3999 420.109 80.2812 417.354 83.1201C414.598 85.9609 410.507 88.7253 405.195 91.3739C394.573 96.6704 379.171 101.454 360.096 105.477C321.956 113.521 269.242 118.5 211 118.5C152.758 118.5 100.044 113.521 61.9036 105.477C42.8293 101.454 27.4266 96.6704 16.8045 91.3739C11.4926 88.7253 7.40198 85.9609 4.64562 83.1201C1.89109 80.2812 0.5 77.3999 0.5 74.5C0.5 71.6001 1.89109 68.7188 4.64562 65.8799C7.40198 63.0391 11.4926 60.2747 16.8045 57.6261C27.4266 52.3296 42.8293 47.5458 61.9036 43.523C100.044 35.4791 152.758 30.5 211 30.5C269.242 30.5 321.956 35.4791 360.096 43.523C379.171 47.5458 394.573 52.3296 405.195 57.6261C410.507 60.2747 414.598 63.0391 417.354 65.8799C420.109 68.7188 421.5 71.6001 421.5 74.5Z" stroke="black"/>
<path d="M421.5 106C421.5 108.863 420.111 111.71 417.356 114.517C414.6 117.326 410.51 120.059 405.197 122.678C394.575 127.915 379.172 132.646 360.097 136.623C321.957 144.577 269.242 149.5 211 149.5C152.758 149.5 100.043 144.577 61.9025 136.623C42.828 132.646 27.4249 127.915 16.8025 122.678C11.4904 120.059 7.39977 117.326 4.64365 114.517C1.88917 111.71 0.5 108.863 0.5 106C0.5 103.137 1.88917 100.29 4.64365 97.4827C7.39977 94.674 11.4904 91.9407 16.8025 89.3217C27.4249 84.0846 42.828 79.3544 61.9025 75.3768C100.043 67.4232 152.758 62.5 211 62.5C269.242 62.5 321.957 67.4232 360.097 75.3768C379.172 79.3544 394.575 84.0846 405.197 89.3217C410.51 91.9407 414.6 94.674 417.356 97.4827C420.111 100.29 421.5 103.137 421.5 106Z" stroke="black"/>
</svg>
