<svg width="369.42369595864665" height="655.2" viewBox="-2.3626938439849625 0 369.42369595864665 655.2" fill="none" xmlns="http://www.w3.org/2000/svg">
<mask id="mask0_901_746" style="mask-type:alpha" maskUnits="userSpaceOnUse" x="41" y="0" width="651" height="650">
<mask id="path-1-outside-1_901_746" maskUnits="userSpaceOnUse" x="40.7109" y="0" width="651" height="650" fill="black">
<rect fill="white" x="40.7109" width="651" height="650"></rect>
<path d="M366.641 162.561L387.068 1L386.909 163.837L427.445 6.10362L407.017 167.665L467.024 16.1514L426.488 174.045L505.007 31.1432L444.841 182.657L540.756 50.7603L462.077 193.662L573.632 74.843L477.876 206.58L603.475 102.753L491.761 221.413L629.489 134.173L503.73 237.999L651.353 168.622L513.625 255.862L668.749 205.464L521.126 274.841L681.356 244.219L526.233 294.618L689.017 284.251L528.786 314.713L691.57 324.92L528.786 335.128L689.017 365.59L526.233 355.383L681.356 405.621L521.126 375.159L668.749 444.536L513.625 394.138L651.353 481.378L503.73 412.001L629.489 515.828L491.761 428.428L603.475 547.247L477.876 443.26L573.632 575.157L462.077 456.338L540.756 599.08L444.841 467.184L505.007 618.697L426.488 475.955L467.024 633.689L407.017 482.176L427.445 643.896L386.909 486.003L387.068 649L366.641 487.279L346.213 649L346.213 486.003L305.676 643.896L326.264 482.176L266.257 633.689L306.794 475.955L228.274 618.697L288.44 467.184L192.526 599.08L271.205 456.338L159.49 575.157L255.405 443.26L129.806 547.247L241.52 428.428L103.792 515.828L229.551 412.001L81.9282 481.378L219.656 394.138L64.5326 444.536L212.155 375.159L51.9248 405.621L207.048 355.383L44.2644 365.59L204.495 335.128L41.7109 324.92L204.495 314.713L44.2644 284.251L207.048 294.618L51.9248 244.219L212.155 274.841L64.5326 205.464L219.656 255.862L81.9282 168.622L229.551 237.999L103.792 134.173L241.52 221.413L129.806 102.753L255.405 206.58L159.49 74.843L271.205 193.662L192.526 50.7603L288.44 182.657L228.274 31.1432L306.794 174.045L266.257 16.1514L326.264 167.665L305.676 6.10362L346.213 163.837V1L366.641 162.561Z"></path>
</mask>
<path d="M366.641 162.561L387.068 1L386.909 163.837L427.445 6.10362L407.017 167.665L467.024 16.1514L426.488 174.045L505.007 31.1432L444.841 182.657L540.756 50.7603L462.077 193.662L573.632 74.843L477.876 206.58L603.475 102.753L491.761 221.413L629.489 134.173L503.73 237.999L651.353 168.622L513.625 255.862L668.749 205.464L521.126 274.841L681.356 244.219L526.233 294.618L689.017 284.251L528.786 314.713L691.57 324.92L528.786 335.128L689.017 365.59L526.233 355.383L681.356 405.621L521.126 375.159L668.749 444.536L513.625 394.138L651.353 481.378L503.73 412.001L629.489 515.828L491.761 428.428L603.475 547.247L477.876 443.26L573.632 575.157L462.077 456.338L540.756 599.08L444.841 467.184L505.007 618.697L426.488 475.955L467.024 633.689L407.017 482.176L427.445 643.896L386.909 486.003L387.068 649L366.641 487.279L346.213 649L346.213 486.003L305.676 643.896L326.264 482.176L266.257 633.689L306.794 475.955L228.274 618.697L288.44 467.184L192.526 599.08L271.205 456.338L159.49 575.157L255.405 443.26L129.806 547.247L241.52 428.428L103.792 515.828L229.551 412.001L81.9282 481.378L219.656 394.138L64.5326 444.536L212.155 375.159L51.9248 405.621L207.048 355.383L44.2644 365.59L204.495 335.128L41.7109 324.92L204.495 314.713L44.2644 284.251L207.048 294.618L51.9248 244.219L212.155 274.841L64.5326 205.464L219.656 255.862L81.9282 168.622L229.551 237.999L103.792 134.173L241.52 221.413L129.806 102.753L255.405 206.58L159.49 74.843L271.205 193.662L192.526 50.7603L288.44 182.657L228.274 31.1432L306.794 174.045L266.257 16.1514L326.264 167.665L305.676 6.10362L346.213 163.837V1L366.641 162.561Z" stroke="black" stroke-width="2" stroke-miterlimit="10" mask="url(#path-1-outside-1_901_746)"></path>
</mask>
<g mask="url(#mask0_901_746)">
<rect x="-785.721" y="-37.1172" width="1152.83" height="702.852" rx="45" fill="black"></rect>
</g>
<path d="M95.7147 471.096L141.422 496L95.7147 521.104L70.7109 566.71L45.7072 521.104L0.000261762 496L45.7072 471.096L70.7109 425.289L95.7147 471.096Z" fill="#B9FF66"></path>
<path d="M217.102 244.565L298.777 289.066L217.102 333.925L172.422 415.422L127.742 333.925L46.0666 289.066L127.742 244.565L172.422 162.711L217.102 244.565Z" fill="#191A23"></path>
</svg>