<svg width="297" height="296" viewBox="0 0 297 296" fill="none" xmlns="http://www.w3.org/2000/svg">
<g clip-path="url(#clip0_1031_1203)">
<path d="M120.783 21.5446H110.712C110.712 21.5446 107.178 46.9488 97.5843 57.6404C88.4947 67.7691 71.48 64.9903 71.48 64.9903C71.48 64.9903 71.4735 65.0113 71.4654 65.0436C64.8846 63.2531 57.3791 63.6461 52.2625 64.9935C44.2403 67.1076 38.4451 70.7873 38.4451 70.7873C38.4451 70.7873 26.0659 78.5998 26.3607 93.5082C26.589 105.076 35.2818 118.848 35.2138 119.834C34.4493 130.875 33.5941 130.498 34.749 134.432C37.5494 143.982 77.2136 140.043 77.9198 135.666C78.5596 131.695 76.7164 125.056 77.6412 116.127C79.1005 102.05 81.9981 97.0391 85.2958 88.3581C103.509 86.8813 115.279 76.6054 118.941 60.1006C122.72 43.0733 120.785 21.543 120.785 21.543L120.783 21.5446Z" fill="white"/>
<path d="M54.1885 140.68C44.7069 140.68 35.7388 139.087 34.4025 134.532C33.6429 131.939 33.7385 131.104 34.0948 127.992C34.3005 126.207 34.5807 123.761 34.8544 119.808C34.8285 119.598 34.2584 118.462 33.6542 117.26C31.2263 112.429 26.1746 102.375 26.0013 93.514C25.7065 78.5749 38.1278 70.5603 38.2541 70.481C38.3108 70.4438 44.187 66.7478 52.172 64.6435C56.848 63.411 64.3277 62.7721 71.3765 64.6435C71.4283 64.6273 71.4834 64.6225 71.5401 64.6322C71.7085 64.6597 88.4689 67.259 97.3188 57.3972C106.731 46.9094 110.323 21.7445 110.357 21.4922C110.382 21.3143 110.534 21.1816 110.714 21.1816H120.785C120.971 21.1816 121.126 21.324 121.143 21.5084C121.162 21.7235 123.041 43.2894 119.293 60.176C115.55 77.0383 103.572 87.1589 85.5519 88.6955C85.0028 90.1335 84.4651 91.4711 83.9452 92.7683C81.399 99.1137 79.1979 104.592 77.9993 116.162C77.4778 121.196 77.8455 125.532 78.1403 129.016C78.3735 131.779 78.5581 133.959 78.2747 135.721C77.8422 138.406 67.0843 140.046 59.9578 140.494C58.0547 140.614 56.111 140.678 54.1901 140.678L54.1885 140.68ZM61.916 64.2035C58.1842 64.2035 54.7829 64.6985 52.3534 65.339C44.4818 67.4126 38.6947 71.052 38.638 71.0892C38.5149 71.1668 26.4337 78.976 26.7204 93.4994C26.8921 102.197 31.8936 112.154 34.2972 116.938C35.2836 118.9 35.5946 119.536 35.5719 119.858C35.2966 123.827 35.0148 126.283 34.8107 128.075C34.4576 131.148 34.375 131.878 35.0941 134.33C36.5826 139.405 49.3942 140.437 59.9124 139.777C70.1731 139.134 77.3223 137.102 77.5637 135.607C77.8325 133.933 77.643 131.683 77.4227 129.078C77.1247 125.563 76.7554 121.191 77.2834 116.088C78.4933 104.419 80.7091 98.8954 83.2762 92.5015C83.8205 91.1444 84.3841 89.742 84.9591 88.2297C85.0077 88.1003 85.1275 88.0097 85.2668 87.9984C103.072 86.5556 114.907 76.6194 118.59 60.0207C122.061 44.3812 120.671 24.6706 120.453 21.8998H111.023C110.576 24.8436 106.834 47.8669 97.8533 57.8759C89.2528 67.4595 73.508 65.6285 71.6097 65.3681C71.5368 65.4005 71.4542 65.4086 71.37 65.3859C68.2343 64.5319 64.9658 64.2019 61.916 64.2019V64.2035Z" fill="black"/>
<path d="M246.34 278.427H70.5304C65.0704 278.427 60.9111 273.437 61.7841 267.937L99.5955 29.8545C100.29 25.476 103.996 22.2588 108.342 22.2588H284.151C289.611 22.2588 293.77 27.2487 292.897 32.7482L255.086 270.829C254.391 275.208 250.685 278.425 246.34 278.425V278.427Z" stroke="white" stroke-miterlimit="10"/>
<path d="M246.339 278.786H70.5295C67.8651 278.786 65.3319 277.612 63.5811 275.564C61.7735 273.45 60.988 270.648 61.4285 267.881L99.2383 29.7982C99.9655 25.2208 103.793 21.8984 108.339 21.8984H284.149C286.813 21.8984 289.346 23.0727 291.097 25.1205C292.905 27.2345 293.69 30.036 293.25 32.8035L255.438 270.885C254.711 275.462 250.884 278.784 246.337 278.784L246.339 278.786ZM108.341 22.6182C104.151 22.6182 100.621 25.685 99.9509 29.9115L62.1396 267.993C61.733 270.553 62.4586 273.143 64.1285 275.097C65.7433 276.984 68.0757 278.066 70.5295 278.066H246.339C250.529 278.066 254.058 274.999 254.729 270.773L292.54 32.6919C292.947 30.1314 292.221 27.5418 290.551 25.5879C288.936 23.7003 286.604 22.6182 284.15 22.6182H108.341Z" fill="black"/>
<path d="M240.752 277.808H64.9425C59.4825 277.808 55.3232 272.826 56.1962 267.336L94.0059 29.6677C94.7008 25.2973 98.4066 22.085 102.752 22.085H278.562C284.021 22.085 288.181 27.0668 287.308 32.5566L249.496 270.225C248.802 274.596 245.096 277.808 240.75 277.808H240.752Z" stroke="white" stroke-miterlimit="10"/>
<path d="M240.752 278.168H64.9428C62.2736 278.168 59.7404 276.994 57.9879 274.945C56.1836 272.835 55.4013 270.042 55.8402 267.281L93.6515 29.6108C94.3788 25.0414 98.2061 21.7256 102.753 21.7256H278.562C281.231 21.7256 283.766 22.8999 285.517 24.9492C287.321 27.0584 288.103 29.8518 287.664 32.6129L249.853 270.281C249.126 274.851 245.299 278.167 240.752 278.167V278.168ZM102.753 22.4437C98.5624 22.4437 95.0331 25.5057 94.3626 29.7241L56.5512 267.393C56.1447 269.945 56.8687 272.527 58.5353 274.477C60.1502 276.366 62.4857 277.449 64.9428 277.449H240.752C244.942 277.449 248.472 274.387 249.142 270.168L286.953 32.4997C287.36 29.9473 286.636 27.3658 284.969 25.4151C283.354 23.5258 281.019 22.4437 278.562 22.4437H102.753Z" fill="black"/>
<path d="M212.004 44.1575H161.041C152.896 44.1575 146.707 36.7058 148.064 28.5326L149.255 21.3688C149.376 20.6425 149.995 20.1104 150.719 20.1104H229.217C230.135 20.1104 230.835 20.9514 230.681 21.8734L229.474 29.1327C228.033 37.8089 220.648 44.1591 212.003 44.1591L212.004 44.1575Z" stroke="white" stroke-miterlimit="10"/>
<path d="M212.005 44.5163H161.042C157.109 44.5163 153.379 42.7807 150.809 39.7528C148.165 36.6392 147.037 32.5275 147.71 28.4741L148.901 21.3102C149.051 20.4061 149.816 19.751 150.72 19.751H229.217C229.755 19.751 230.265 19.9871 230.615 20.4012C230.975 20.8234 231.127 21.3814 231.036 21.933L229.83 29.1922C228.354 38.0722 220.857 44.5179 212.003 44.5179L212.005 44.5163ZM150.72 20.4691C150.169 20.4691 149.703 20.8719 149.61 21.4283L148.42 28.5922C147.78 32.4385 148.851 36.3367 151.358 39.2886C153.791 42.1548 157.32 43.7981 161.042 43.7981H212.005C220.505 43.7981 227.705 37.6048 229.122 29.0725L230.328 21.8133C230.385 21.472 230.29 21.1258 230.068 20.8654C229.854 20.6131 229.544 20.4691 229.219 20.4691H150.721H150.72Z" fill="black"/>
<path d="M177.699 35.7904H199.461C200.287 35.7904 200.99 35.2453 201.123 34.4123L204.105 15.0494C205.3 7.34206 199.471 0.359375 191.833 0.359375C185.723 0.359375 180.521 4.87863 179.562 11.0429L176.036 33.8672C175.869 34.9137 176.66 35.7904 177.698 35.7904H177.699ZM186.603 12.2916L186.627 12.146C187.038 9.6486 189.154 7.81922 191.633 7.81922C194.774 7.81922 197.16 10.7016 196.64 13.8654L196.616 14.011C196.204 16.5084 194.089 18.3377 191.609 18.3377C188.47 18.3377 186.083 15.4554 186.603 12.2916Z" fill="#B9FF66"/>
<path d="M199.463 36.1492H177.701C177.09 36.1492 176.518 35.8904 176.133 35.4391C175.754 34.9959 175.59 34.4023 175.684 33.8103L179.209 10.9876C180.2 4.62116 185.509 0 191.836 0C195.517 0 199.02 1.62234 201.447 4.44971C203.959 7.37736 205.059 11.2609 204.463 15.1025L201.481 34.4654C201.324 35.4569 200.494 36.1476 199.463 36.1476V36.1492ZM191.834 0.718164C185.865 0.718164 180.854 5.08376 179.918 11.0976L176.392 33.9203C176.33 34.3117 176.431 34.6838 176.677 34.9717C176.926 35.2628 177.297 35.4294 177.697 35.4294H199.459C200.128 35.4294 200.666 34.9878 200.765 34.3554L203.747 14.9941C204.31 11.3596 203.272 7.6863 200.896 4.91878C198.606 2.24992 195.302 0.719781 191.831 0.719781L191.834 0.718164ZM191.609 18.6965C190.031 18.6965 188.535 17.9994 187.503 16.7847C186.436 15.5295 185.979 13.8716 186.248 12.233L186.272 12.0875C186.713 9.40568 188.967 7.45985 191.633 7.45985C193.209 7.45985 194.707 8.15698 195.739 9.37172C196.806 10.6269 197.263 12.2848 196.994 13.9233L196.972 14.0673C196.531 16.7491 194.275 18.6965 191.61 18.6965H191.609ZM186.957 12.3495C186.722 13.7794 187.121 15.2254 188.05 16.3188C188.946 17.3718 190.243 17.9767 191.607 17.9767C193.918 17.9767 195.875 16.2832 196.259 13.9508L196.282 13.8069C196.516 12.377 196.118 10.9294 195.188 9.83593C194.293 8.78295 192.995 8.17801 191.632 8.17801C189.32 8.17801 187.364 9.87152 186.98 12.2039L186.956 12.3495H186.957Z" fill="black"/>
<path d="M211.455 85.987C211.95 86.5661 212.166 87.3344 212.046 88.093L196.806 184.45C196.607 185.705 195.559 186.616 194.312 186.616H186.941C186.212 186.616 185.517 186.295 185.038 185.734C184.542 185.155 184.327 184.387 184.447 183.628L199.683 87.2713C199.882 86.0161 200.93 85.1055 202.177 85.1055H209.552C210.282 85.1055 210.975 85.4274 211.455 85.987Z" fill="white"/>
<path d="M185.805 110.717C186.3 111.295 186.518 112.06 186.401 112.817L175.337 184.441C175.143 185.701 174.093 186.616 172.843 186.616H165.468C164.739 186.616 164.048 186.296 163.568 185.738C163.073 185.16 162.856 184.395 162.972 183.638L174.031 112.014C174.226 110.754 175.275 109.839 176.527 109.839H183.905C184.632 109.839 185.325 110.159 185.805 110.717Z" fill="white"/>
<path d="M113.059 163.056C113.554 163.626 113.776 164.384 113.669 165.137L110.932 184.407C110.752 185.667 109.678 186.615 108.431 186.615H101.046C100.323 186.615 99.6348 186.3 99.1554 185.748C98.6614 185.179 98.4379 184.422 98.5464 183.668L101.28 164.397C101.459 163.139 102.534 162.189 103.781 162.189H111.17C111.891 162.189 112.581 162.505 113.059 163.056Z" fill="white"/>
<path d="M137.277 147.82C137.773 148.399 137.99 149.165 137.87 149.924L132.424 184.448C132.225 185.704 131.177 186.615 129.93 186.615H122.557C121.828 186.615 121.135 186.295 120.656 185.734C120.16 185.154 119.945 184.388 120.063 183.629L125.505 149.106C125.704 147.849 126.752 146.937 127.999 146.937H135.375C136.104 146.937 136.797 147.258 137.277 147.82Z" fill="white"/>
<path d="M161.545 129.268C162.039 129.845 162.256 130.612 162.138 131.369L153.881 184.443C153.685 185.702 152.637 186.616 151.387 186.616H144.012C143.285 186.616 142.592 186.295 142.112 185.736C141.617 185.158 141.4 184.393 141.518 183.635L149.772 130.562C149.968 129.302 151.017 128.388 152.266 128.388H159.644C160.373 128.388 161.064 128.708 161.545 129.268Z" fill="white"/>
<path d="M212.001 85.5196C212.634 86.2604 212.908 87.239 212.756 88.2046L197.516 184.562C197.262 186.169 195.914 187.335 194.311 187.335H186.94C185.999 187.335 185.106 186.921 184.489 186.202C183.858 185.462 183.582 184.484 183.734 183.517L198.971 87.1597C199.225 85.5519 200.573 84.3857 202.176 84.3857H209.55C210.491 84.3857 211.384 84.7998 212.001 85.5196ZM212.045 88.093C212.165 87.3344 211.949 86.5661 211.454 85.987C210.974 85.4274 210.281 85.1055 209.55 85.1055H202.176C200.929 85.1055 199.881 86.0162 199.682 87.2713L184.445 183.628C184.326 184.387 184.541 185.155 185.037 185.734C185.516 186.295 186.211 186.616 186.94 186.616H194.311C195.558 186.616 196.606 185.705 196.805 184.45L212.045 88.093Z" fill="black"/>
<path d="M173.319 111.905C173.569 110.291 174.916 109.118 176.526 109.118H183.904C184.842 109.118 185.734 109.531 186.35 110.249C186.983 110.985 187.26 111.96 187.111 112.926L176.048 184.55C175.799 186.162 174.45 187.335 172.842 187.335H165.467C164.529 187.335 163.637 186.922 163.02 186.204C162.388 185.468 162.111 184.493 162.26 183.527L173.319 111.905ZM176.526 109.838C175.274 109.838 174.225 110.753 174.03 112.013L162.971 183.637C162.855 184.394 163.072 185.159 163.567 185.737C164.047 186.295 164.738 186.615 165.467 186.615H172.842C174.092 186.615 175.141 185.7 175.336 184.44L186.4 112.816C186.516 112.059 186.299 111.294 185.804 110.716C185.324 110.158 184.631 109.838 183.904 109.838H176.526Z" fill="black"/>
<path d="M162.09 128.801C162.723 129.538 162.999 130.515 162.85 131.481L154.593 184.554C154.341 186.165 152.992 187.336 151.386 187.336H144.011C143.073 187.336 142.181 186.923 141.564 186.205C140.932 185.468 140.655 184.491 140.806 183.525L149.06 130.452C149.311 128.839 150.658 127.67 152.265 127.67H159.643C160.582 127.67 161.473 128.081 162.09 128.801ZM162.137 131.369C162.255 130.612 162.038 129.845 161.544 129.268C161.063 128.708 160.372 128.388 159.643 128.388H152.265C151.016 128.388 149.967 129.302 149.771 130.562L141.517 183.635C141.399 184.394 141.616 185.159 142.111 185.736C142.591 186.296 143.284 186.616 144.011 186.616H151.386C152.636 186.616 153.684 185.702 153.88 184.444L162.137 131.369Z" fill="black"/>
<path d="M125.505 149.107L120.063 183.631C119.944 184.389 120.16 185.156 120.655 185.735C121.135 186.296 121.828 186.616 122.557 186.616H129.93C131.177 186.616 132.225 185.706 132.424 184.449L137.869 149.925C137.989 149.167 137.772 148.4 137.277 147.821C136.797 147.26 136.104 146.938 135.375 146.938H127.999C126.752 146.938 125.704 147.85 125.505 149.107ZM124.794 148.995C125.048 147.388 126.396 146.22 127.999 146.22H135.375C136.314 146.22 137.207 146.632 137.824 147.354C138.457 148.093 138.733 149.071 138.58 150.037L133.135 184.561C132.881 186.168 131.533 187.336 129.93 187.336H122.557C121.618 187.336 120.725 186.922 120.108 186.202C119.475 185.463 119.199 184.485 119.352 183.519L124.794 148.995Z" fill="black"/>
<path d="M113.603 162.587C114.235 163.313 114.518 164.279 114.382 165.238L111.645 184.51C111.415 186.121 110.035 187.336 108.431 187.336H101.046C100.114 187.336 99.2283 186.93 98.6128 186.221C97.9811 185.495 97.6961 184.528 97.8321 183.569L100.568 164.298C100.796 162.687 102.178 161.471 103.781 161.471H111.17C112.1 161.471 112.987 161.878 113.603 162.587ZM113.669 165.138C113.776 164.385 113.554 163.627 113.059 163.057C112.581 162.506 111.891 162.19 111.17 162.19H103.781C102.534 162.19 101.459 163.14 101.28 164.398L98.5464 183.669C98.4379 184.423 98.6614 185.18 99.1554 185.749C99.6348 186.301 100.323 186.616 101.046 186.616H108.431C109.678 186.616 110.752 185.668 110.932 184.408L113.669 165.138Z" fill="black"/>
<path d="M97.8676 212.94C95.1644 212.94 92.9648 210.705 92.9648 207.958C92.9648 205.212 95.1644 202.977 97.8676 202.977C100.571 202.977 102.77 205.212 102.77 207.958C102.77 210.705 100.571 212.94 97.8676 212.94ZM97.8676 203.695C95.5612 203.695 93.684 205.607 93.684 207.958C93.684 210.31 95.5612 212.222 97.8676 212.222C100.174 212.222 102.051 210.31 102.051 207.958C102.051 205.607 100.174 203.695 97.8676 203.695Z" fill="black"/>
<path d="M93.9848 231.993C91.2816 231.993 89.082 229.758 89.082 227.011C89.082 224.265 91.2816 222.029 93.9848 222.029C96.688 222.029 98.8875 224.265 98.8875 227.011C98.8875 229.758 96.688 231.993 93.9848 231.993ZM93.9848 222.747C91.6784 222.747 89.8012 224.659 89.8012 227.011C89.8012 229.363 91.6784 231.275 93.9848 231.275C96.2912 231.275 98.1684 229.363 98.1684 227.011C98.1684 224.659 96.2912 222.747 93.9848 222.747Z" fill="black"/>
<path d="M90.561 251.973C87.8577 251.973 85.6582 249.738 85.6582 246.992C85.6582 244.245 87.8577 242.01 90.561 242.01C93.2642 242.01 95.4637 244.245 95.4637 246.992C95.4637 249.738 93.2642 251.973 90.561 251.973ZM90.561 242.728C88.2545 242.728 86.3773 244.64 86.3773 246.992C86.3773 249.343 88.2545 251.255 90.561 251.255C92.8674 251.255 94.7446 249.343 94.7446 246.992C94.7446 244.64 92.8674 242.728 90.561 242.728Z" fill="black"/>
<path d="M159.742 208.317H111.11C110.91 208.317 110.75 208.157 110.75 207.958C110.75 207.759 110.91 207.599 111.11 207.599H159.742C159.941 207.599 160.102 207.76 160.102 207.958C160.102 208.155 159.94 208.317 159.742 208.317Z" fill="black"/>
<path d="M156.696 227.214H151.635C151.436 227.214 151.275 227.054 151.275 226.855C151.275 226.656 151.436 226.496 151.635 226.496H156.696C156.896 226.496 157.056 226.658 157.056 226.855C157.056 227.053 156.896 227.214 156.696 227.214Z" fill="white"/>
<path d="M142.389 227.214H108.065C107.865 227.214 107.705 227.054 107.705 226.855C107.705 226.656 107.865 226.496 108.065 226.496H142.389C142.588 226.496 142.748 226.658 142.748 226.855C142.748 227.053 142.586 227.214 142.389 227.214Z" fill="black"/>
<path d="M152.74 246.731H104.108C103.908 246.731 103.748 246.569 103.748 246.372C103.748 246.174 103.908 246.013 104.108 246.013H152.74C152.939 246.013 153.1 246.173 153.1 246.372C153.1 246.571 152.938 246.731 152.74 246.731Z" fill="black"/>
<path d="M101.211 120.703C101.211 120.703 108.483 120.596 112.283 118.948C116.083 117.301 116.024 120.158 114.949 121.162C114.078 121.978 108.827 124.9 104.118 125.242L101.211 120.701V120.703Z" fill="white"/>
<path d="M104.121 125.6C104 125.6 103.885 125.539 103.818 125.435L100.911 120.895C100.84 120.785 100.835 120.646 100.896 120.531C100.958 120.416 101.078 120.343 101.207 120.342C101.279 120.342 108.452 120.216 112.142 118.618C114.479 117.605 115.368 118.275 115.69 118.765C116.218 119.567 115.854 120.811 115.198 121.426C114.192 122.365 108.829 125.262 104.149 125.6C104.141 125.6 104.131 125.6 104.123 125.6H104.121ZM101.858 121.044L104.307 124.866C108.92 124.457 113.978 121.579 114.706 120.9C115.143 120.491 115.405 119.641 115.088 119.159C114.751 118.647 113.782 118.69 112.428 119.278C109.228 120.665 103.736 120.978 101.858 121.044Z" fill="black"/>
<path d="M90.6035 117.98L94.2105 110.864L97.5568 112.807C97.7414 112.914 97.8985 113.064 98.0151 113.242L98.2257 113.567C98.4897 113.975 98.9546 114.211 99.4356 114.182C99.6964 114.166 99.9571 114.227 100.186 114.36L125.067 128.775C125.273 128.893 125.461 129.038 125.629 129.207L130.768 134.366L123.911 133.173C123.536 133.108 123.172 132.995 122.827 132.835L96.7988 120.834C96.5769 120.733 96.3858 120.571 96.2481 120.369L96.2141 120.318C95.9484 119.93 95.4982 119.707 95.0349 119.731L94.8001 119.744C94.5847 119.756 94.3693 119.714 94.1717 119.623L90.6051 117.98H90.6035Z" fill="white"/>
<path d="M130.767 134.727C130.746 134.727 130.725 134.726 130.706 134.722L123.848 133.529C123.445 133.457 123.05 133.334 122.675 133.163L96.6472 121.163C96.3654 121.033 96.1257 120.83 95.9491 120.574L95.9151 120.522C95.7207 120.239 95.3936 120.074 95.0518 120.092L94.817 120.105C94.5449 120.12 94.2695 120.066 94.0185 119.951L90.4519 118.308C90.3629 118.268 90.2948 118.192 90.2624 118.099C90.23 118.007 90.2365 117.905 90.2819 117.82L93.8889 110.704C93.9342 110.615 94.0136 110.551 94.1076 110.521C94.2015 110.494 94.3052 110.505 94.391 110.555L97.7372 112.498C97.9705 112.632 98.1697 112.823 98.3155 113.05L98.526 113.375C98.7204 113.676 99.0621 113.847 99.4104 113.826C99.744 113.805 100.073 113.884 100.364 114.052L125.246 128.467C125.477 128.602 125.693 128.767 125.882 128.958L131.022 134.117C131.132 134.229 131.158 134.399 131.085 134.536C131.022 134.656 130.898 134.73 130.766 134.73L130.767 134.727ZM95.102 119.372C95.6576 119.372 96.1904 119.652 96.5095 120.118L96.5435 120.168C96.6456 120.317 96.7849 120.435 96.9485 120.509L122.977 132.51C123.294 132.655 123.629 132.76 123.971 132.82L129.713 133.82L125.372 129.462C125.226 129.317 125.063 129.19 124.885 129.087L100.003 114.672C99.8347 114.575 99.6452 114.53 99.4557 114.541C98.8419 114.58 98.2572 114.28 97.9219 113.763L97.7113 113.438C97.6271 113.307 97.5105 113.197 97.3744 113.118L94.3586 111.367L91.0917 117.81L94.3181 119.298C94.4623 119.364 94.6194 119.395 94.7765 119.387L95.0113 119.374C95.0405 119.374 95.0713 119.372 95.1004 119.372H95.102Z" fill="black"/>
<path d="M124.361 131.522C124.312 131.522 124.264 131.512 124.217 131.491C124.035 131.412 123.953 131.198 124.032 131.017L124.981 128.866C125.061 128.685 125.274 128.602 125.456 128.681C125.637 128.761 125.72 128.974 125.64 129.155L124.691 131.307C124.631 131.441 124.5 131.522 124.363 131.522H124.361Z" fill="black"/>
<path d="M88.426 107.722L93.8422 110.638C94.1192 110.787 94.2261 111.133 94.0803 111.413L90.9025 117.501C90.7535 117.786 90.402 117.894 90.1202 117.742L84.7153 114.832C83.6318 114.248 83.2026 112.912 83.7597 111.846L85.4572 108.595C86.0127 107.529 87.3425 107.139 88.4276 107.723L88.426 107.722Z" fill="black"/>
<path d="M90.3889 118.17C90.2366 118.17 90.0844 118.133 89.9467 118.059L84.5419 115.149C83.2866 114.473 82.7926 112.917 83.4372 111.681L85.1347 108.43C85.444 107.838 85.9688 107.403 86.6102 107.206C87.271 107.003 87.9756 107.074 88.5943 107.408L94.0105 110.324C94.4591 110.565 94.6324 111.13 94.396 111.581L91.2182 117.669C91.1015 117.892 90.9039 118.057 90.6626 118.13C90.5719 118.158 90.4796 118.172 90.3873 118.172L90.3889 118.17ZM87.3617 107.809C87.1803 107.809 87.0005 107.836 86.824 107.89C86.3672 108.03 85.9947 108.338 85.7744 108.76L84.077 112.011C83.6122 112.902 83.975 114.025 84.8852 114.515L90.2901 117.425C90.3419 117.452 90.3986 117.459 90.4553 117.441C90.5104 117.423 90.5557 117.386 90.5833 117.334L93.7611 111.246C93.8161 111.141 93.7756 111.01 93.672 110.955L88.2558 108.039C87.974 107.886 87.6678 107.81 87.3617 107.81V107.809Z" fill="black"/>
<path d="M96.3367 119.039C96.28 119.039 96.2217 119.026 96.1666 118.997C95.9917 118.903 95.9253 118.685 96.0192 118.51L97.8138 115.163C97.9078 114.989 98.1248 114.922 98.3014 115.016C98.4763 115.11 98.5427 115.328 98.4488 115.503L96.6542 118.85C96.5894 118.971 96.4647 119.039 96.3367 119.039Z" fill="black"/>
<path d="M108.009 121.594C107.949 121.594 107.889 121.58 107.832 121.549L100.414 117.39C100.241 117.293 100.179 117.073 100.277 116.9C100.374 116.727 100.592 116.666 100.767 116.763L108.185 120.921C108.359 121.018 108.42 121.238 108.323 121.411C108.257 121.53 108.135 121.594 108.009 121.594Z" fill="black"/>
<path d="M122.695 130.151C122.635 130.151 122.575 130.137 122.52 130.106L119.622 128.496C119.449 128.399 119.386 128.181 119.483 128.008C119.58 127.835 119.799 127.772 119.972 127.869L122.87 129.478C123.043 129.575 123.106 129.794 123.009 129.967C122.943 130.085 122.821 130.151 122.695 130.151Z" fill="black"/>
<path d="M89.8521 115.633C89.7938 115.633 89.7339 115.619 89.6788 115.59L85.5406 113.324C85.3656 113.228 85.3025 113.01 85.398 112.835C85.4936 112.661 85.7123 112.597 85.8872 112.693L90.0255 114.959C90.2004 115.054 90.2635 115.273 90.168 115.447C90.1032 115.567 89.9785 115.633 89.8521 115.633Z" fill="white"/>
<path d="M88.0967 123.546C88.0967 123.546 94.5317 124.459 98.8724 121.11C102.564 118.262 110.04 126.414 110.683 127.449C111.593 128.915 109.59 131.216 107.277 129.913C107.277 129.913 106.665 133.546 101.673 134.155C96.681 134.765 94.5511 131.499 93.2116 131.013C91.8722 130.526 88.0352 130.498 88.0352 130.498L88.0967 123.546Z" fill="white"/>
<path d="M100.448 134.59C97.3789 134.59 95.5163 133.129 94.2335 132.123C93.7768 131.766 93.3832 131.455 93.0868 131.349C91.8202 130.888 88.069 130.857 88.0318 130.857C87.9362 130.857 87.8455 130.818 87.7775 130.75C87.7111 130.682 87.6738 130.59 87.6738 130.495L87.7354 123.543C87.7354 123.439 87.7824 123.34 87.8601 123.274C87.9378 123.206 88.0415 123.175 88.1451 123.19C88.2083 123.198 94.4846 124.039 98.6504 120.825C99.4311 120.222 100.408 120.021 101.554 120.228C105.542 120.948 110.476 126.438 110.986 127.26C111.473 128.044 111.311 129.079 110.583 129.836C109.967 130.477 108.822 130.968 107.502 130.423C107.139 131.468 105.84 134.008 101.713 134.512C101.269 134.566 100.848 134.592 100.447 134.592L100.448 134.59ZM88.3978 130.142C89.3988 130.161 92.1862 130.254 93.3346 130.672C93.7379 130.82 94.1525 131.145 94.6789 131.557C96.0362 132.622 98.0851 134.229 101.627 133.796C106.274 133.228 106.896 129.987 106.92 129.849C106.94 129.734 107.016 129.636 107.121 129.586C107.228 129.535 107.351 129.54 107.452 129.597C108.581 130.234 109.541 129.88 110.064 129.336C110.477 128.906 110.733 128.216 110.375 127.636C109.946 126.946 105.16 121.608 101.428 120.934C100.479 120.762 99.7129 120.913 99.0909 121.391C95.2636 124.343 89.9624 124.089 88.4529 123.945L88.3978 130.14V130.142Z" fill="black"/>
<path d="M44.3744 71.8682C44.3744 71.8682 35.5601 75.5722 30.9068 90.6488C28.338 98.9691 28.8093 110.835 41.4768 126.609C44.01 129.763 47.5684 132.901 51.5868 133.355L90.0849 133.729L89.9132 121.421C89.9132 121.421 60.0577 117.548 55.5696 115.862C51.5949 114.369 45.8386 94.9351 45.2393 85.4001L44.3744 71.8698V71.8682Z" fill="white"/>
<path d="M90.0833 134.087H90.0801L51.582 133.713C51.569 133.713 51.5577 133.713 51.5447 133.712C47.1586 133.217 43.4949 129.699 41.195 126.834C39.8296 125.134 38.5144 123.413 37.2835 121.716C37.1669 121.556 37.2025 121.331 37.3628 121.215C37.5232 121.098 37.7483 121.134 37.8649 121.296C39.0894 122.983 40.3981 124.696 41.7554 126.386C43.9679 129.141 47.4712 132.523 51.6063 132.998L89.7172 133.369L89.5553 121.741C86.1993 121.302 59.7225 117.81 55.4417 116.202C51.867 114.86 47.6413 101.372 45.9099 92.6792C45.871 92.4851 45.9973 92.2958 46.1933 92.257C46.3877 92.2182 46.5772 92.3444 46.616 92.5401C48.6082 102.551 52.8275 114.454 55.6943 115.531C60.0917 117.182 89.6589 121.032 89.957 121.069C90.1351 121.092 90.2679 121.242 90.2712 121.42L90.4429 133.728C90.4429 133.825 90.4056 133.919 90.3376 133.987C90.2696 134.054 90.1789 134.092 90.0833 134.092V134.087Z" fill="black"/>
<path d="M122.81 22.946C123.259 24.1122 124.137 27.2501 122.689 29.3528C121.392 31.2388 118.68 31.3148 117.141 29.6213C116.335 28.7333 115.943 27.2824 115.339 25.2347C115.042 24.2286 114.6 23.5347 114.113 22.9104C113.794 22.5028 113.306 22.265 112.788 22.2634L108.209 22.2407C108.209 22.2407 108.245 20.4599 109.578 19.7466C110.744 19.1222 113.761 19.6366 113.998 19.2824C116.636 15.3211 121.008 18.2553 122.81 22.9476V22.946Z" fill="white"/>
<path d="M119.851 31.1904C118.724 31.1904 117.652 30.7149 116.876 29.8624C116.061 28.9664 115.66 27.598 115.103 25.7007L114.994 25.3351C114.696 24.3242 114.238 23.6545 113.83 23.1305C113.578 22.8086 113.198 22.6226 112.786 22.621L108.208 22.5983C108.112 22.5983 108.02 22.5595 107.952 22.4899C107.884 22.4204 107.848 22.3282 107.85 22.2311C107.851 22.1503 107.906 20.2303 109.408 19.4264C110.156 19.0253 111.476 19.0415 112.535 19.0544C112.991 19.0593 113.551 19.0673 113.739 19.0188C114.96 17.2266 116.395 16.9775 117.39 17.0875C119.612 17.3334 121.925 19.6351 123.146 22.8151C123.413 23.5122 124.665 27.1143 122.986 29.5535C122.328 30.5078 121.285 31.1014 120.122 31.1791C120.031 31.1855 119.941 31.1888 119.85 31.1888L119.851 31.1904ZM108.611 21.8818L112.79 21.9028C113.423 21.906 114.009 22.1923 114.396 22.6889C114.847 23.2647 115.352 24.0071 115.684 25.1329L115.793 25.5001C116.322 27.3036 116.706 28.6073 117.409 29.3804C118.097 30.139 119.069 30.5337 120.075 30.4658C121.018 30.4027 121.861 29.9223 122.394 29.1491C123.868 27.006 122.722 23.7128 122.475 23.0755C121.366 20.185 119.242 18.0176 117.312 17.8041C116.141 17.6747 115.125 18.2376 114.299 19.4798C114.098 19.7823 113.64 19.7887 112.529 19.7742C111.602 19.7629 110.336 19.7467 109.75 20.0605C108.961 20.4826 108.698 21.3771 108.613 21.8801L108.611 21.8818Z" fill="black"/>
<path d="M47.8713 250.777L45.0645 264.23L52.4113 266.307L56.4735 253.21L47.8713 250.777Z" fill="white"/>
<path d="M52.4131 266.666C52.3807 266.666 52.3483 266.661 52.3143 266.653L44.969 264.576C44.7876 264.524 44.6759 264.341 44.7147 264.157L47.52 250.706C47.5411 250.609 47.601 250.523 47.6852 250.471C47.7711 250.42 47.8731 250.405 47.9703 250.433L56.5724 252.865C56.6663 252.891 56.7441 252.954 56.791 253.04C56.838 253.126 56.8477 253.226 56.8186 253.318L52.7564 266.415C52.7095 266.569 52.5669 266.669 52.4131 266.669V266.666ZM45.4873 263.974L52.1734 265.865L56.0233 253.456L48.1468 251.228L45.4873 263.974Z" fill="black"/>
<path d="M42.6368 275.567C42.7194 276.861 44.3051 277.899 45.5862 278.093C50.042 278.766 60.5132 278.481 63.3573 278.679C67.0486 278.934 73.9808 278.659 74.2496 276.307C74.5768 273.438 71.4816 269.253 64.0748 266.961C60.2443 265.776 56.1935 259.903 54.4005 259.798C52.6075 259.693 49.4346 264.331 49.4346 264.331L44.3294 262.598C44.3294 262.598 42.2157 269.003 42.6352 275.568L42.6368 275.567Z" fill="white"/>
<path d="M65.6809 279.101C64.3285 279.101 63.3648 279.038 63.3324 279.036C62.3606 278.97 60.451 278.958 58.2385 278.947C53.888 278.923 48.4735 278.894 45.5321 278.449C44.0339 278.223 42.3689 277.021 42.2782 275.591C41.8571 269.034 43.9675 262.551 43.9886 262.486C44.0194 262.395 44.0842 262.319 44.17 262.277C44.2558 262.234 44.3546 262.227 44.447 262.258L49.2946 263.905C50.0154 262.886 52.6587 259.337 54.4225 259.439C55.3555 259.494 56.601 260.686 58.1802 262.196C59.9456 263.885 62.1435 265.988 64.1827 266.619C71.8389 268.988 74.9536 273.323 74.6086 276.348C74.3348 278.743 68.9057 279.102 65.6825 279.102L65.6809 279.101ZM44.5652 263.055C44.1441 264.469 42.6394 269.983 42.9957 275.542C43.0638 276.61 44.4437 277.556 45.639 277.736C48.5302 278.172 53.9156 278.202 58.2417 278.226C60.4656 278.239 62.3881 278.248 63.381 278.318C67.4933 278.601 73.6773 278.145 73.8911 276.264C74.2134 273.436 70.9092 269.451 63.9673 267.303C61.7645 266.622 59.5002 264.454 57.6797 262.712C56.3257 261.417 55.0461 260.192 54.3772 260.154C53.2159 260.086 50.9127 262.803 49.7287 264.532C49.638 264.665 49.4696 264.721 49.3157 264.67L44.562 263.054L44.5652 263.055Z" fill="black"/>
<path d="M67.6043 275.603C66.6293 275.603 65.5587 275.548 64.4249 275.488C62.7453 275.4 61.0074 275.31 59.297 275.388C55.4162 275.564 52.0959 275.412 49.9952 275.252C46.0999 274.956 45.946 274.71 45.8877 274.618C45.818 274.508 45.8132 274.367 45.8764 274.252C45.9719 274.077 46.1906 274.013 46.3639 274.106C46.3639 274.106 46.3671 274.106 46.3687 274.108C46.9907 274.271 52.4004 274.98 59.2646 274.668C61.009 274.588 62.7647 274.679 64.4621 274.768C67.0342 274.902 69.4621 275.028 70.8663 274.432C71.0494 274.354 71.2599 274.438 71.3393 274.621C71.417 274.804 71.3328 275.014 71.1498 275.093C70.2298 275.485 69.0167 275.601 67.6043 275.601V275.603Z" fill="black"/>
<path d="M58.0977 270.99C58.007 270.99 57.9163 270.956 57.8466 270.888C57.7041 270.749 57.7025 270.52 57.8401 270.38L60.5288 267.632C60.6681 267.489 60.8965 267.488 61.0374 267.625C61.1799 267.764 61.1815 267.992 61.0439 268.133L58.3552 270.881C58.2839 270.954 58.1916 270.99 58.0977 270.99Z" fill="black"/>
<path d="M8.0304 250.138L7.65625 259.519L14.2143 261.101L15.3821 250.204L8.0304 250.138Z" fill="white"/>
<path d="M14.2148 261.461C14.1872 261.461 14.1581 261.458 14.1305 261.452L7.57248 259.87C7.40565 259.829 7.29066 259.677 7.29714 259.506L7.67128 250.123C7.67938 249.93 7.83811 249.778 8.03085 249.778H8.03409L15.3858 249.845C15.4878 249.845 15.5834 249.89 15.6514 249.964C15.7195 250.04 15.7518 250.141 15.7405 250.241L14.5727 261.14C14.5614 261.243 14.5063 261.335 14.4221 261.395C14.3605 261.439 14.2877 261.461 14.2148 261.461ZM8.02761 259.239L13.8989 260.656L14.9809 250.56L8.37422 250.5L8.02599 259.239H8.02761Z" fill="black"/>
<path d="M15.2139 278.16C12.5852 278.53 8.29631 278.687 3.217 278.155C0.93974 277.916 0.0521575 274.754 0.452217 273.126C1.56655 268.593 3.50207 261.282 6.79649 257.296L8.00639 259.73L9.14826 257.358C9.30375 257.079 9.58071 256.89 9.89655 256.85L12.3601 256.874C12.8768 256.808 13.3578 257.15 13.4647 257.662L13.8583 259.536L15.9606 257.115L17.6013 274.999C17.8022 276.531 16.7397 277.945 15.2123 278.16H15.2139Z" fill="white"/>
<path d="M9.60523 278.86C7.80091 278.86 5.64512 278.771 3.17835 278.512C2.30211 278.42 1.53438 277.94 0.957778 277.12C0.0523789 275.835 -0.158179 274.095 0.100969 273.04C1.4372 267.601 3.37434 260.87 6.51813 257.068C6.59587 256.974 6.71735 256.925 6.8372 256.94C6.95868 256.954 7.06396 257.029 7.11903 257.137L8.00175 258.912L8.82455 257.202C9.0432 256.806 9.42383 256.548 9.85304 256.493C9.86924 256.492 9.88219 256.49 9.90163 256.49L12.3425 256.513C13.0341 256.438 13.6755 256.906 13.8196 257.587L14.0642 258.753L15.692 256.88C15.7859 256.772 15.9365 256.73 16.0742 256.773C16.2119 256.817 16.3091 256.94 16.322 257.082L17.9628 274.967C18.1879 276.676 16.9796 278.275 15.266 278.516C14.3282 278.648 12.3878 278.86 9.60685 278.86H9.60523ZM6.72544 257.965C3.49743 262.236 1.61861 269.883 0.800669 273.213C0.585252 274.088 0.774755 275.611 1.54734 276.707C2.00733 277.361 2.58231 277.728 3.25448 277.799C7.54662 278.249 11.9975 278.252 15.164 277.805C16.4872 277.619 17.4218 276.382 17.2469 275.048L15.6823 257.99L14.1338 259.774C14.0448 259.877 13.9038 259.921 13.771 259.887C13.6382 259.853 13.5378 259.746 13.5086 259.614L13.1151 257.739C13.047 257.414 12.7377 257.192 12.4073 257.234C12.3911 257.236 12.3749 257.238 12.3587 257.238L9.92269 257.215C9.72994 257.246 9.55988 257.365 9.46432 257.537L8.33216 259.892C8.27224 260.016 8.14752 260.094 8.00985 260.096C7.88837 260.089 7.74584 260.02 7.68591 259.897L6.72868 257.972L6.72544 257.965Z" fill="black"/>
<path d="M7.91004 275.925C6.22882 275.925 4.40992 275.776 2.59589 275.362C2.40152 275.318 2.28167 275.125 2.3254 274.931C2.36913 274.737 2.56349 274.618 2.75623 274.661C8.94016 276.072 15.4043 274.259 15.4691 274.241C15.6586 274.186 15.8594 274.296 15.9145 274.487C15.9696 274.677 15.8594 274.876 15.6683 274.931C15.4739 274.986 12.1277 275.925 7.91166 275.925H7.91004Z" fill="black"/>
<path d="M6.40273 268.981C6.20999 268.981 6.04964 268.828 6.04316 268.634C6.03669 268.435 6.19217 268.27 6.39139 268.263L12.3016 268.067C12.4976 268.066 12.666 268.216 12.6725 268.415C12.679 268.614 12.5235 268.779 12.3243 268.786L6.41407 268.981C6.41407 268.981 6.40597 268.981 6.40273 268.981Z" fill="black"/>
<path d="M77.2766 137.761C79.7645 152.301 84.2866 188.033 74.5232 214.76C66.1203 237.763 60.1227 249.218 57.8179 253.378C57.1878 254.515 55.9309 255.149 54.6417 254.984L48.6521 254.214C46.877 253.986 45.6411 252.335 45.9246 250.565C48.1095 236.879 56.7894 170.263 54.4765 164.105L17.2806 251.425C16.8789 252.352 15.9622 252.948 14.9531 252.936L8.67042 252.867C7.27102 252.85 6.15506 251.688 6.19231 250.287C8.04846 179.611 28.7674 168.238 34.8379 134.447C34.8525 134.368 36.8252 136.742 36.8997 136.786C42.9784 140.303 46.0201 140.029 55.3446 140.539C65.432 141.089 74.8002 137.288 77.0094 137.391C77.1778 137.399 77.2475 137.595 77.2766 137.763V137.761Z" fill="black"/>
<path d="M66.161 70.0614L67.8794 61.2574C68.0025 60.6654 68.4917 60.2189 69.091 60.1494L72.5474 59.7563C73.2843 59.6722 73.8755 59.1077 73.9921 58.3734L74.7744 53.4627C74.7744 53.4627 74.7809 53.4481 74.7874 53.4449L76.4297 52.5569C76.7569 52.3806 76.8816 51.9746 76.7132 51.643L74.9833 48.2625C74.6465 47.6042 74.1832 43.8888 73.4463 43.926C73.4463 43.926 61.0072 39.5992 57.3483 44.7574C56.3797 46.1242 56.2712 47.9261 56.9272 49.4675L57.7646 51.4344C58.6343 53.4789 58.8287 55.7773 58.163 57.8962C57.9265 58.6516 57.5929 59.3827 57.1685 60.0669L52.4941 67.3472C55.8906 69.0504 59.6256 69.9643 63.4237 70.0193L66.161 70.0597V70.0614Z" fill="white"/>
<path d="M66.1633 70.4197H66.1585L63.4212 70.3792C59.5923 70.3226 55.7585 69.3845 52.3361 67.6683C52.2454 67.623 52.1774 67.5405 52.1499 67.4419C52.1223 67.3432 52.1385 67.2381 52.1936 67.1523L56.868 59.872C57.2697 59.2234 57.592 58.5214 57.822 57.7871C58.4391 55.817 58.303 53.6107 57.4349 51.5727L56.5975 49.6058C55.8735 47.9042 56.0484 45.9665 57.0559 44.5463C60.7423 39.351 72.4979 43.2184 73.5134 43.5662C74.1953 43.6228 74.516 44.8197 74.9501 46.751C75.0796 47.3252 75.2125 47.9188 75.3048 48.0983L77.0346 51.4789C77.2905 51.9803 77.0961 52.6047 76.6021 52.8715L75.1055 53.6819L74.3492 58.4292C74.2082 59.3189 73.4843 60.0111 72.5902 60.113L69.1338 60.5061C68.6868 60.5562 68.3256 60.8878 68.2333 61.3294L66.5148 70.1301C66.4824 70.2983 66.3334 70.4213 66.1617 70.4213L66.1633 70.4197ZM53.0164 67.2025C56.2509 68.7585 59.8433 69.6077 63.4309 69.6611L65.8669 69.6966L67.5287 61.187C67.6842 60.4365 68.2964 59.8785 69.0528 59.7912L72.5092 59.3981C73.0826 59.3334 73.5474 58.8886 73.6381 58.316L74.4204 53.4053C74.4382 53.2953 74.5192 53.1805 74.618 53.1271L76.2604 52.2391C76.4142 52.1566 76.4742 51.9609 76.3948 51.8056L74.665 48.4251C74.5387 48.1776 74.4237 47.6875 74.2487 46.9095C74.0722 46.1299 73.711 44.5221 73.4195 44.2827C73.3887 44.2795 73.3595 44.2746 73.3304 44.2633C73.2089 44.2212 61.1051 40.0853 57.6438 44.962C56.7805 46.1784 56.6331 47.8509 57.2616 49.3244L58.0989 51.2913C59.0335 53.4862 59.1793 55.8688 58.5103 58.0022C58.2625 58.7932 57.9143 59.5501 57.4786 60.2554L53.018 67.2009L53.0164 67.2025Z" fill="black"/>
<path d="M63.7463 49.4013C63.1082 47.8162 62.1105 47.2226 62.2967 46.3216C62.4101 45.7782 62.8798 45.4369 63.1487 45.2428C64.48 44.2787 66.2293 44.8675 69.744 45.5291C74.1074 46.3508 74.6046 46.4802 75.4274 46.155C77.52 45.3285 78.7105 42.7567 78.8012 40.641C78.8271 40.0474 78.879 36.8965 76.2016 35.271C74.2677 34.0967 71.6795 34.1856 69.5885 35.4861C69.4055 34.8747 69.0248 34.0126 68.194 33.5888C66.2228 32.5827 63.2831 34.8391 62.2546 35.6284C61.3039 36.3579 59.6081 37.8816 58.3933 40.5618C58.0046 40.345 56.5485 39.5913 54.9612 40.0975C52.6013 40.8513 52.0199 43.732 51.9697 44.0054C51.3785 47.1886 53.9991 49.9658 55.9767 52.0637C57.0668 53.2202 57.6401 53.6602 58.2799 54.0872C58.6589 54.3395 59.1481 54.3573 59.5465 54.1389C59.553 54.1357 59.5611 54.1309 59.5676 54.1276C60.0907 53.8397 60.2656 53.1701 59.9514 52.6622L59.851 52.5004C59.4736 51.8923 59.2161 51.2113 59.1367 50.498C59.0736 49.9303 59.1189 49.3334 59.485 49.0277C60.0745 48.5327 61.0787 48.8595 61.2229 48.9064C61.9582 49.1458 62.4198 49.6909 62.7033 50.2085C63.0078 50.7633 64.0265 50.1033 63.7447 49.3997L63.7463 49.4013Z" fill="black"/>
<path d="M29.8175 37.0885C29.6944 37.0885 29.5697 37.0804 29.445 37.0643C27.882 36.8653 26.7531 35.4452 26.928 33.9005C27.0123 33.1548 27.3832 32.49 27.9727 32.0274C28.572 31.5567 29.3252 31.3513 30.0896 31.45C31.6526 31.6489 32.7815 33.0691 32.6066 34.6138C32.5224 35.3594 32.1515 36.0242 31.5619 36.4868C31.0598 36.8799 30.4508 37.0885 29.8175 37.0885ZM27.6423 33.9813C27.5111 35.1378 28.3614 36.2021 29.5357 36.3526C30.1075 36.4253 30.6695 36.2733 31.1165 35.9223C31.5538 35.5794 31.8292 35.0861 31.8907 34.5345C32.0219 33.378 31.1716 32.3137 29.9973 32.1633C29.4256 32.0905 28.8635 32.2425 28.4165 32.5935C27.9792 32.9364 27.7039 33.4298 27.6423 33.9813Z" fill="black"/>
<path d="M18.9538 42.3794C18.8907 42.3794 18.8291 42.3633 18.7708 42.3293L16.3704 40.9108C16.1988 40.8105 16.1421 40.5889 16.2441 40.419C16.3445 40.2476 16.5664 40.191 16.7365 40.2929L19.1369 41.7114C19.3085 41.8117 19.3652 42.0333 19.2632 42.2031C19.1968 42.3164 19.0769 42.3794 18.9538 42.3794Z" fill="black"/>
<path d="M24.5456 45.6841C24.4825 45.6841 24.4209 45.6679 24.3626 45.634L21.9622 44.2154C21.7906 44.1135 21.7339 43.8936 21.8359 43.7237C21.9363 43.5523 22.1582 43.4957 22.3283 43.5976L24.7287 45.0161C24.9003 45.1164 24.957 45.338 24.855 45.5078C24.7886 45.621 24.6687 45.6841 24.5456 45.6841Z" fill="black"/>
<path d="M18.1843 47.3141C18.1228 47.3141 18.0596 47.2979 18.0013 47.2639C17.8296 47.1636 17.7729 46.942 17.875 46.7722L19.2954 44.3751C19.3975 44.2036 19.6161 44.147 19.7878 44.2489C19.9595 44.3492 20.0162 44.5708 19.9141 44.7406L18.4937 47.1378C18.4257 47.251 18.3058 47.3141 18.1827 47.3141H18.1843Z" fill="black"/>
<path d="M21.4929 41.7272C21.4314 41.7272 21.3682 41.711 21.3099 41.677C21.1382 41.5767 21.0815 41.3551 21.1836 41.1853L22.604 38.7882C22.7061 38.6167 22.9263 38.5601 23.0964 38.662C23.2681 38.7623 23.3248 38.9839 23.2227 39.1537L21.8023 41.5508C21.7359 41.6641 21.6144 41.7272 21.4913 41.7272H21.4929Z" fill="black"/>
<path d="M270.807 295.642H144.952C137.396 295.642 131.745 288.714 133.266 281.321L152.361 188.587C153.966 180.789 160.838 175.192 168.807 175.192H276.76L270.807 295.643V295.642Z" fill="white"/>
<path d="M270.808 296H144.953C141.244 296 137.773 294.354 135.429 291.483C133.084 288.61 132.167 284.878 132.915 281.247L152.009 188.513C153.642 180.586 160.707 174.831 168.809 174.831H276.762C276.861 174.831 276.955 174.871 277.023 174.943C277.091 175.014 277.126 175.109 277.121 175.208L271.169 295.659C271.159 295.85 271.002 296 270.809 296H270.808ZM168.807 175.549C161.046 175.549 154.277 181.062 152.714 188.657L133.62 281.391C132.915 284.81 133.778 288.322 135.986 291.026C138.192 293.729 141.461 295.279 144.951 295.279H270.463L276.38 175.548H168.806L168.807 175.549Z" fill="black"/>
<path d="M286.922 295.641H262.499C254.943 295.641 249.292 288.714 250.813 281.32L271.843 179.179C272.321 176.856 274.368 175.19 276.741 175.19H283.022C285.626 175.19 287.793 177.186 288.006 179.779L296.608 285.141C297.069 290.795 292.601 295.64 286.922 295.64V295.641Z" fill="white"/>
<path d="M286.923 296H262.499C258.79 296 255.319 294.353 252.976 291.482C250.63 288.61 249.714 284.878 250.462 281.247L271.492 179.106C272.002 176.628 274.21 174.829 276.741 174.829H283.022C285.792 174.829 288.139 176.99 288.364 179.748L296.966 285.109C297.195 287.906 296.234 290.691 294.331 292.754C292.428 294.814 289.728 295.997 286.923 295.997V296ZM276.741 175.549C274.55 175.549 272.639 177.105 272.196 179.251L251.167 281.392C250.462 284.812 251.325 288.323 253.533 291.028C255.739 293.731 259.007 295.28 262.498 295.28H286.921C289.564 295.28 292.008 294.211 293.801 292.268C295.568 290.353 296.461 287.765 296.249 285.169L287.647 179.808C287.452 177.419 285.419 175.549 283.022 175.549H276.741Z" fill="black"/>
<path d="M279.138 292.376H262.497C259.883 292.376 257.436 291.214 255.784 289.191C254.132 287.166 253.487 284.537 254.013 281.978L260.916 248.449C260.957 248.255 261.146 248.129 261.341 248.17C261.535 248.21 261.661 248.399 261.621 248.593L254.718 282.122C254.235 284.468 254.826 286.879 256.341 288.735C257.855 290.591 260.098 291.656 262.496 291.656H279.136C279.335 291.656 279.496 291.816 279.496 292.015C279.496 292.214 279.334 292.374 279.136 292.374L279.138 292.376Z" fill="black"/>
<path d="M286.922 292.376C286.723 292.376 286.562 292.215 286.562 292.016C286.562 291.818 286.723 291.657 286.922 291.657C288.542 291.657 290.038 291.002 291.135 289.812C292.233 288.621 292.764 287.078 292.633 285.466L290.673 261.454C290.657 261.257 290.804 261.082 291.002 261.066C291.196 261.048 291.375 261.197 291.389 261.394L293.349 285.406C293.498 287.221 292.899 288.958 291.663 290.297C290.427 291.636 288.743 292.374 286.92 292.374L286.922 292.376Z" fill="black"/>
<path d="M285.574 194.964C285.388 194.964 285.231 194.822 285.216 194.634L284.808 189.63C284.792 189.433 284.939 189.258 285.137 189.242C285.336 189.224 285.509 189.373 285.524 189.57L285.932 194.575C285.948 194.772 285.801 194.947 285.603 194.963C285.593 194.963 285.584 194.963 285.574 194.963V194.964Z" fill="black"/>
<path d="M269.63 208.279C269.606 208.279 269.582 208.276 269.557 208.271C269.363 208.231 269.237 208.041 269.277 207.847L275.045 179.837C275.21 179.037 275.923 178.456 276.741 178.456H283.022C283.917 178.456 284.674 179.155 284.747 180.044L285.014 183.321C285.03 183.519 284.883 183.693 284.685 183.71C284.489 183.727 284.314 183.579 284.298 183.381L284.031 180.104C283.989 179.583 283.545 179.176 283.023 179.176H276.742C276.264 179.176 275.848 179.515 275.751 179.983L269.983 207.993C269.948 208.163 269.799 208.281 269.632 208.281L269.63 208.279Z" fill="black"/>
<path d="M253.66 224.229H155.119C154.92 224.229 154.76 224.069 154.76 223.87C154.76 223.671 154.92 223.511 155.119 223.511H253.66C256.427 223.511 258.805 221.633 259.443 218.943L268.129 182.307C268.174 182.114 268.369 181.995 268.561 182.04C268.754 182.085 268.874 182.279 268.829 182.472L260.142 219.108C259.428 222.123 256.762 224.229 253.66 224.229Z" fill="black"/>
<path d="M215.625 223.871L212.865 234.996C212.42 236.879 210.737 238.207 208.802 238.207H189.285C187.16 238.207 185.621 236.183 186.189 234.137L189.048 223.871H215.625Z" fill="white"/>
<path d="M208.803 238.565H189.286C188.16 238.565 187.124 238.053 186.442 237.156C185.76 236.26 185.541 235.125 185.844 234.04L188.703 223.773C188.747 223.618 188.888 223.51 189.05 223.51H215.627C215.737 223.51 215.842 223.56 215.91 223.647C215.978 223.735 216.003 223.848 215.977 223.955L213.217 235.08C212.731 237.129 210.915 238.564 208.803 238.564V238.565ZM189.323 224.23L186.539 234.232C186.298 235.097 186.473 236.005 187.017 236.721C187.561 237.436 188.389 237.847 189.288 237.847H208.805C210.582 237.847 212.109 236.641 212.519 234.913L215.169 224.231H189.325L189.323 224.23Z" fill="black"/>
<path d="M244.669 286.684H139.985C139.785 286.684 139.625 286.524 139.625 286.325C139.625 286.126 139.785 285.966 139.985 285.966H244.669C244.868 285.966 245.029 286.128 245.029 286.325C245.029 286.522 244.867 286.684 244.669 286.684Z" fill="black"/>
<path d="M193.673 170.981H185.501C183.294 170.981 181.504 172.77 181.504 174.975H197.67C197.67 172.769 195.88 170.981 193.673 170.981Z" fill="white"/>
<path d="M197.67 175.334H181.504C181.305 175.334 181.145 175.172 181.145 174.975C181.145 172.574 183.099 170.622 185.501 170.622H193.673C196.075 170.622 198.03 172.574 198.03 174.975C198.03 175.174 197.869 175.334 197.67 175.334ZM181.881 174.616H197.293C197.111 172.78 195.558 171.34 193.673 171.34H185.501C183.618 171.34 182.063 172.78 181.881 174.616Z" fill="black"/>
<path d="M259.163 170.981H250.992C248.784 170.981 246.994 172.77 246.994 174.975H263.16C263.16 172.769 261.37 170.981 259.163 170.981Z" fill="black"/>
<path d="M263.162 175.334H246.996C246.797 175.334 246.637 175.172 246.637 174.975C246.637 172.574 248.592 170.622 250.994 170.622H259.165C261.567 170.622 263.522 172.574 263.522 174.975C263.522 175.174 263.36 175.334 263.162 175.334ZM247.372 174.616H262.783C262.602 172.78 261.049 171.34 259.163 171.34H250.992C249.108 171.34 247.553 172.78 247.372 174.616Z" fill="black"/>
<path d="M257.031 170.766L258.347 162.952C259.282 157.41 255.542 152.917 249.995 152.917H200.995C195.447 152.917 190.195 157.41 189.26 162.952L187.943 170.766H191.693L192.718 164.684C193.445 160.37 197.533 156.875 201.852 156.875H247.805C252.121 156.875 255.034 160.372 254.306 164.684L253.281 170.766H257.031Z" fill="white"/>
<path d="M257.031 171.125H253.282C253.177 171.125 253.076 171.078 253.007 170.997C252.939 170.916 252.909 170.809 252.927 170.706L253.952 164.624C254.289 162.623 253.824 160.75 252.64 159.354C251.482 157.988 249.766 157.234 247.807 157.234H201.854C197.711 157.234 193.773 160.603 193.075 164.744L192.05 170.826C192.021 170.999 191.87 171.125 191.695 171.125H187.946C187.841 171.125 187.74 171.078 187.67 170.997C187.602 170.916 187.573 170.809 187.591 170.706L188.908 162.892C189.868 157.193 195.291 152.558 200.997 152.558H249.997C252.76 152.558 255.188 153.628 256.835 155.573C258.515 157.556 259.179 160.197 258.705 163.011L257.388 170.826C257.359 170.999 257.208 171.125 257.033 171.125H257.031ZM253.706 170.407H256.727L257.994 162.892C258.432 160.291 257.825 157.855 256.285 156.037C254.777 154.256 252.543 153.276 249.996 153.276H200.996C195.625 153.276 190.521 157.643 189.616 163.011L188.37 170.407H191.391L192.364 164.624C193.117 160.152 197.374 156.514 201.852 156.514H247.806C249.981 156.514 251.892 157.357 253.19 158.888C254.511 160.451 255.034 162.529 254.662 164.742L253.708 170.405L253.706 170.407Z" fill="black"/>
<path d="M247.561 149.683H204.518C202.783 149.683 201.141 151.088 200.848 152.821L200.214 156.576C199.923 158.309 201.092 159.714 202.827 159.714H245.87C247.605 159.714 249.247 158.309 249.54 156.576L250.173 152.821C250.465 151.088 249.296 149.683 247.561 149.683Z" fill="white"/>
<path d="M245.871 160.073H202.828C201.89 160.073 201.064 159.708 200.501 159.043C199.927 158.367 199.7 157.469 199.861 156.516L200.494 152.76C200.813 150.865 202.619 149.323 204.519 149.323H247.562C248.5 149.323 249.326 149.689 249.889 150.354C250.463 151.03 250.689 151.927 250.529 152.88L249.896 156.636C249.577 158.532 247.771 160.073 245.871 160.073ZM204.519 150.041C202.954 150.041 201.467 151.314 201.205 152.88L200.572 156.636C200.447 157.377 200.617 158.067 201.051 158.579C201.476 159.078 202.106 159.355 202.83 159.355H245.872C247.437 159.355 248.924 158.082 249.186 156.516L249.82 152.76C249.944 152.02 249.774 151.329 249.34 150.818C248.916 150.318 248.286 150.041 247.562 150.041H204.519Z" fill="black"/>
<path d="M221.192 160.073H202.828C201.89 160.073 201.064 159.708 200.501 159.043C199.927 158.367 199.7 157.469 199.861 156.516L200.494 152.76C200.813 150.865 202.619 149.323 204.519 149.323H218.876C219.075 149.323 219.235 149.485 219.235 149.682C219.235 149.88 219.075 150.041 218.876 150.041H204.519C202.954 150.041 201.467 151.314 201.205 152.88L200.572 156.636C200.447 157.377 200.617 158.067 201.051 158.579C201.476 159.078 202.106 159.355 202.83 159.355H221.193C221.393 159.355 221.553 159.517 221.553 159.714C221.553 159.911 221.391 160.073 221.193 160.073H221.192Z" fill="black"/>
<path d="M262.268 286.684C262.144 286.684 262.022 286.619 261.956 286.503C261.857 286.33 261.917 286.111 262.09 286.013L278.779 276.512V182.388C278.779 182.189 278.941 182.029 279.139 182.029C279.337 182.029 279.499 182.189 279.499 182.388V276.72C279.499 276.85 279.429 276.969 279.317 277.032L262.447 286.637C262.39 286.669 262.33 286.684 262.268 286.684Z" fill="black"/>
<path d="M261.611 172.837C261.611 172.837 269.12 175.632 272.065 173.279C275.009 170.925 267.5 166.953 265.733 167.247C263.966 167.541 261.611 172.837 261.611 172.837Z" fill="black"/>
<path d="M223.873 232.816L230.94 245.173L234.769 239.878L228.585 227.814L223.873 232.816Z" fill="white"/>
<path d="M230.94 245.532C230.94 245.532 230.927 245.532 230.92 245.532C230.799 245.526 230.687 245.458 230.627 245.351L223.559 232.993C223.481 232.856 223.501 232.684 223.609 232.568L228.321 227.567C228.4 227.481 228.517 227.44 228.633 227.457C228.75 227.473 228.85 227.544 228.904 227.649L235.088 239.712C235.149 239.832 235.138 239.978 235.059 240.086L231.23 245.382C231.162 245.475 231.053 245.53 230.938 245.53L230.94 245.532ZM224.317 232.869L230.975 244.51L234.348 239.845L228.496 228.432L224.317 232.869Z" fill="black"/>
<path d="M228.492 243.288C230.356 247.126 235.073 256.437 239.619 260.899C240.727 261.988 242.601 261.482 242.999 259.981C244.422 254.606 245.369 243.408 240.069 234.581C240.069 234.581 237.549 234.287 232.838 235.17L233.886 239.583L233.307 239.17C232.436 238.549 231.254 238.601 230.441 239.296L229.083 240.459C228.265 241.16 228.024 242.321 228.494 243.288H228.492Z" fill="black"/>
<path d="M240.363 259.654C240.321 259.654 240.277 259.646 240.235 259.631C240.049 259.562 239.955 259.353 240.026 259.169C244.051 248.543 238.617 236.029 238.56 235.904C238.479 235.723 238.562 235.511 238.745 235.43C238.926 235.35 239.139 235.432 239.22 235.615C239.276 235.743 244.827 248.527 240.7 259.424C240.645 259.568 240.509 259.657 240.363 259.657V259.654Z" fill="white"/>
<path d="M231.234 249C231.116 249 231.001 248.942 230.931 248.836C230.823 248.67 230.87 248.447 231.037 248.34L234.571 246.05C234.738 245.941 234.961 245.988 235.068 246.155C235.177 246.321 235.13 246.544 234.963 246.651L231.429 248.942C231.369 248.98 231.301 249 231.233 249H231.234Z" fill="white"/>
<path d="M233.002 252.134C232.894 252.134 232.787 252.086 232.717 251.994C232.596 251.837 232.626 251.61 232.783 251.489L236.023 249.004C236.18 248.883 236.407 248.912 236.528 249.071C236.65 249.228 236.619 249.454 236.462 249.575L233.222 252.06C233.158 252.11 233.08 252.134 233.004 252.134H233.002Z" fill="white"/>
<path d="M201.49 233.109C201.49 233.404 195.012 247.526 195.012 247.526L202.373 248.115L207.38 236.052L201.49 233.109Z" fill="white"/>
<path d="M202.375 248.473C202.365 248.473 202.355 248.473 202.345 248.473L194.984 247.884C194.867 247.875 194.762 247.808 194.702 247.708C194.642 247.606 194.636 247.483 194.686 247.377C197.187 241.924 200.953 233.646 201.137 233.047C201.155 232.947 201.215 232.858 201.302 232.803C201.409 232.737 201.54 232.732 201.652 232.787L207.541 235.729C207.71 235.813 207.784 236.014 207.713 236.188L202.707 248.252C202.65 248.386 202.519 248.473 202.375 248.473ZM195.554 247.208L202.143 247.736L206.921 236.224L201.681 233.607C201.283 234.587 199.96 237.604 195.556 247.21L195.554 247.208Z" fill="black"/>
<path d="M201.788 244.584C201.788 244.584 200.315 241.053 196.486 242.819C196.486 242.819 189.459 252.961 186.848 261.334C186.109 263.702 188.543 265.837 190.806 264.817C196.102 262.428 204.402 257.414 209.151 248.116C209.151 248.116 207.678 244.291 205.322 242.526L201.788 244.585V244.584Z" fill="black"/>
<path d="M189.005 262.621C188.703 262.621 188.524 262.599 188.481 262.592C188.285 262.563 188.149 262.38 188.178 262.185C188.207 261.989 188.388 261.853 188.586 261.882C188.669 261.894 196.49 262.796 207.091 248.198C207.207 248.038 207.432 248.001 207.593 248.119C207.753 248.235 207.79 248.46 207.672 248.62C198.22 261.636 190.98 262.623 189.005 262.623V262.621Z" fill="white"/>
<path d="M195.011 254.652C194.95 254.652 194.887 254.636 194.83 254.603L191.296 252.544C191.124 252.444 191.066 252.224 191.166 252.053C191.267 251.881 191.487 251.823 191.659 251.923L195.193 253.982C195.365 254.082 195.423 254.302 195.322 254.474C195.256 254.589 195.135 254.652 195.011 254.652Z" fill="white"/>
<path d="M196.78 252.005C196.721 252.005 196.663 251.99 196.61 251.961L192.781 249.902C192.606 249.808 192.541 249.59 192.635 249.415C192.729 249.24 192.947 249.176 193.122 249.27L196.951 251.329C197.126 251.422 197.191 251.641 197.097 251.815C197.032 251.935 196.908 252.005 196.78 252.005Z" fill="white"/>
<path d="M239.185 161.909C239.185 161.909 219.991 165.333 206.159 179.824C202.669 183.482 201.435 188.747 202.933 193.575C206.005 203.479 212.695 221.567 223.872 235.17L232.413 227.815C232.413 227.815 230.351 210.751 224.756 200.159C219.16 189.568 251.849 166.619 251.849 166.619L239.186 161.912L239.185 161.909Z" fill="#B9FF66"/>
<path d="M223.873 235.529C223.863 235.529 223.852 235.529 223.842 235.529C223.745 235.521 223.656 235.474 223.594 235.4C212.323 221.682 205.596 203.374 202.588 193.683C201.053 188.732 202.321 183.328 205.899 179.579C219.653 165.17 238.929 161.592 239.122 161.558C239.185 161.547 239.25 161.553 239.311 161.574L251.974 166.281C252.099 166.328 252.188 166.44 252.206 166.572C252.223 166.705 252.165 166.836 252.055 166.912C251.731 167.14 219.689 189.798 225.074 199.991C230.636 210.52 232.748 227.6 232.77 227.772C232.784 227.891 232.739 228.009 232.648 228.087L224.107 235.442C224.041 235.498 223.958 235.529 223.873 235.529ZM239.154 162.281C237.677 162.569 219.512 166.357 206.421 180.072C203.023 183.632 201.818 188.764 203.277 193.468C206.247 203.042 212.864 221.066 223.918 234.657L232.031 227.67C231.783 225.774 229.622 210.143 224.438 200.328C219.101 190.225 246.642 169.908 251.086 166.72L239.154 162.284V162.281Z" fill="black"/>
<path d="M199.135 235.757L209.148 238.699C209.148 238.699 227.406 200.156 232.706 194.566C238.007 188.976 248.313 179.855 259.209 176.619C270.104 173.382 270.104 165.144 270.104 165.144L251.552 159.849C251.552 159.849 225.638 171.029 217.099 183.681C208.558 196.333 199.135 235.757 199.135 235.757Z" fill="#B9FF66"/>
<path d="M209.148 239.058C209.114 239.058 209.08 239.053 209.046 239.044L199.033 236.101C198.85 236.048 198.74 235.859 198.786 235.673C198.88 235.278 208.322 196.039 216.801 183.48C225.301 170.886 251.151 159.631 251.412 159.52C251.488 159.487 251.574 159.481 251.653 159.504L270.205 164.799C270.359 164.843 270.466 164.984 270.466 165.145C270.466 165.231 270.338 173.689 259.313 176.964C247.146 180.578 236.072 191.541 232.969 194.815C227.768 200.3 209.657 238.469 209.474 238.854C209.414 238.982 209.284 239.06 209.148 239.06V239.058ZM199.566 235.509L208.956 238.269C210.742 234.508 227.345 199.701 232.446 194.32C235.581 191.014 246.77 179.941 259.107 176.275C268.527 173.477 269.608 166.826 269.731 165.412L251.579 160.232C249.676 161.069 225.489 171.895 217.397 183.882C209.404 195.722 200.502 231.665 199.566 235.509Z" fill="black"/>
<path d="M285.125 134.84C280.118 124.836 271.873 123.366 271.873 123.366L257.738 122.188C253.318 121.889 248.619 124.618 246.873 128.686L233.885 158.965C233.885 158.965 236.535 166.027 248.314 167.203C260.094 168.381 268.193 167.645 272.02 172.352C274.543 175.455 274.464 154.756 273.013 138.386L285.125 134.839V134.84Z" fill="white"/>
<path d="M272.497 173.026C272.283 173.026 272.021 172.922 271.742 172.579C268.872 169.05 263.333 168.673 255.665 168.149C253.446 167.997 250.931 167.826 248.279 167.562C236.414 166.376 233.66 159.389 233.548 159.093C233.516 159.005 233.518 158.91 233.555 158.824L246.543 128.545C248.318 124.406 253.14 121.519 257.763 121.831L271.904 123.008C272.022 123.028 280.419 124.632 285.448 134.68C285.495 134.775 285.498 134.887 285.456 134.984C285.414 135.081 285.329 135.156 285.227 135.185L273.399 138.649C274.413 150.294 275.25 171.965 272.761 172.974C272.685 173.005 272.597 173.026 272.498 173.026H272.497ZM234.277 158.967C234.708 159.906 237.821 165.796 248.351 166.847C250.991 167.111 253.5 167.282 255.714 167.432C263.563 167.968 269.233 168.354 272.301 172.126C272.432 172.288 272.503 172.306 272.503 172.306C272.534 172.29 273.622 171.738 273.666 160.841C273.692 154.245 273.315 145.863 272.654 138.42C272.639 138.248 272.746 138.091 272.911 138.043L284.607 134.619C279.72 125.232 271.889 123.734 271.81 123.722L257.707 122.549C253.383 122.256 248.864 124.957 247.204 128.83L234.276 158.968L234.277 158.967Z" fill="black"/>
<path d="M247.322 160.916L253.801 157.974L258.807 160.033C258.807 160.033 285.94 157.316 273.932 138.119C273.88 138.037 283.093 135.438 283.093 135.438C283.093 135.438 294.039 161.505 259.397 162.094C259.397 162.094 257.63 162.682 255.275 161.505C252.918 160.327 248.796 162.682 247.324 160.916H247.322Z" fill="white"/>
<path d="M258.217 162.601C257.435 162.601 256.349 162.444 255.112 161.827C254.113 161.327 252.691 161.539 251.317 161.742C249.591 162 247.96 162.242 247.046 161.146C246.975 161.06 246.947 160.945 246.972 160.835C246.996 160.725 247.072 160.634 247.174 160.588L253.653 157.645C253.743 157.605 253.847 157.603 253.939 157.64L258.86 159.666C260.025 159.53 272.313 157.938 275.743 150.954C277.434 147.51 276.723 143.256 273.628 138.308C273.568 138.213 273.557 138.093 273.597 137.986C273.683 137.763 273.704 137.711 282.995 135.09C283.171 135.041 283.354 135.128 283.424 135.297C283.466 135.398 287.651 145.595 282.535 153.422C278.751 159.209 270.985 162.247 259.453 162.451C259.299 162.495 258.86 162.6 258.217 162.6V162.601ZM253.526 160.798C254.21 160.798 254.859 160.895 255.434 161.183C257.613 162.271 259.267 161.757 259.284 161.751C259.318 161.739 259.356 161.733 259.391 161.733C270.698 161.54 278.282 158.613 281.932 153.029C286.364 146.252 283.507 137.572 282.875 135.871C279.879 136.717 275.737 137.904 274.47 138.305C277.509 143.319 278.154 147.68 276.388 151.272C272.626 158.928 259.404 160.335 258.844 160.392C258.784 160.397 258.726 160.389 258.67 160.366L253.808 158.365L247.997 161.005C248.743 161.398 249.949 161.22 251.21 161.032C251.986 160.918 252.776 160.799 253.526 160.799V160.798Z" fill="black"/>
<path d="M222.629 163.251H248.171L229.236 134.156C228.645 133.247 227.613 132.695 226.505 132.695H205.776C204.46 132.695 203.66 134.103 204.362 135.183L222.629 163.251Z" fill="black"/>
<path d="M217.534 142.897C218.364 144.171 220.149 145.206 221.52 145.206C222.892 145.206 223.331 144.173 222.502 142.897C221.673 141.622 219.888 140.587 218.516 140.587C217.144 140.587 216.705 141.62 217.534 142.897Z" fill="white"/>
<path d="M221.523 145.565C220.02 145.565 218.136 144.48 217.234 143.092C216.735 142.325 216.622 141.565 216.925 141.009C217.198 140.506 217.764 140.228 218.517 140.228C220.018 140.228 221.903 141.313 222.806 142.701C223.305 143.467 223.418 144.228 223.115 144.784C222.841 145.287 222.276 145.565 221.523 145.565ZM218.517 140.947C218.041 140.947 217.699 141.091 217.556 141.352C217.383 141.67 217.485 142.162 217.836 142.701C218.593 143.864 220.281 144.845 221.521 144.845C221.997 144.845 222.339 144.702 222.48 144.441C222.653 144.122 222.551 143.631 222.2 143.092C221.444 141.929 219.756 140.947 218.515 140.947H218.517Z" fill="black"/>
<path d="M263.72 165.438H224.427C223.385 165.438 222.54 164.594 222.54 163.554V163.062H265.605V163.554C265.605 164.594 264.76 165.438 263.719 165.438H263.72Z" fill="black"/>
<path d="M274.524 54.5188C285.337 51.1075 299.321 66.6079 296.505 79.3569C295.727 82.8733 296.587 88.1916 292.729 90.1342C285.886 93.5795 281.583 89.408 279.824 92.1787C278.3 94.5807 283.714 98.0421 283.063 103.064C282.094 110.528 268.684 114.13 267.161 114.539C266.024 114.845 250.018 118.929 242.424 110.419C240.595 108.37 238.196 104.405 239.479 101.887C240.702 99.4849 244.458 100.001 245.368 97.4744C246.157 95.2843 243.642 94.0599 243.896 91.59C244.387 86.8281 254.234 86.5822 255.381 81.5858C256.298 77.5922 250.576 75.2437 251.552 71.2889C252.341 68.0992 256.458 68.0135 263.037 63.9342C270.914 59.0494 270.426 55.8112 274.523 54.5188H274.524Z" fill="black"/>
<path d="M262.452 121.306C262.19 121.175 258.646 116.999 256.573 114.539C256.73 113.856 256.707 113.638 256.65 112.603C256.65 112.603 257.724 111.527 257.293 110.131C256.793 108.509 255.251 109.811 255.251 109.811C255.251 109.811 254.537 108.564 251.851 110.713C249.166 112.865 246.328 110.247 246.328 110.247C246.328 110.247 246.328 111.858 247.749 113.816C248.531 114.896 248.664 116.323 248.701 117.656L250.206 117.439C251.035 118.419 251.65 118.899 252.787 119.37C252.787 119.37 253.686 119.205 254.621 118.434L256.27 122.186L254.588 123.069C254.588 123.069 254.208 125.423 258.626 126.011C263.043 126.6 266.577 123.069 266.577 123.069C266.577 123.069 264.221 122.186 262.455 121.305L262.452 121.306Z" fill="white"/>
<path d="M259.637 126.44C259.288 126.44 258.935 126.418 258.574 126.371C256.694 126.12 255.391 125.527 254.706 124.606C254.109 123.804 254.224 123.047 254.228 123.016C254.246 122.905 254.316 122.808 254.416 122.756L255.801 122.03L254.47 119C253.621 119.582 252.884 119.723 252.848 119.729C252.78 119.742 252.709 119.734 252.646 119.708C251.538 119.251 250.885 118.782 250.058 117.829L248.749 118.017C248.647 118.031 248.545 118.002 248.466 117.936C248.388 117.869 248.341 117.774 248.338 117.67C248.3 116.363 248.169 115.018 247.453 114.031C245.984 112.003 245.965 110.322 245.965 110.253C245.965 110.11 246.049 109.981 246.18 109.924C246.311 109.866 246.464 109.892 246.569 109.989C246.676 110.088 249.216 112.367 251.622 110.439C252.9 109.416 253.953 108.973 254.752 109.125C254.982 109.169 255.155 109.256 255.281 109.347C255.61 109.133 256.187 108.849 256.739 109.009C257.162 109.132 257.463 109.476 257.635 110.029C258.04 111.34 257.309 112.383 257.016 112.735V112.752C257.063 113.575 257.079 113.876 256.961 114.447C261.685 120.05 262.497 120.884 262.635 121.001C264.361 121.861 266.676 122.73 266.698 122.74C266.813 122.783 266.898 122.88 266.923 123C266.949 123.12 266.912 123.244 266.826 123.33C266.689 123.467 263.658 126.445 259.635 126.445L259.637 126.44ZM254.939 123.293C254.952 123.487 255.02 123.828 255.301 124.197C255.863 124.935 257.029 125.439 258.67 125.658C261.998 126.101 264.849 124.064 265.893 123.194C265.084 122.875 263.535 122.25 262.29 121.627C262.17 121.567 261.92 121.442 256.297 114.769C256.224 114.683 256.196 114.566 256.221 114.456C256.358 113.861 256.347 113.675 256.298 112.784L256.289 112.621C256.284 112.519 256.321 112.42 256.394 112.347C256.431 112.31 257.307 111.401 256.948 110.236C256.852 109.927 256.715 109.745 256.538 109.693C256.204 109.596 255.683 109.915 255.482 110.084C255.401 110.154 255.293 110.181 255.187 110.164C255.082 110.146 254.99 110.081 254.938 109.987C254.938 109.987 254.842 109.858 254.588 109.819C254.259 109.769 253.493 109.856 252.076 110.992C250.032 112.629 247.9 111.726 246.815 111.045C246.967 111.665 247.303 112.587 248.04 113.602C248.791 114.639 248.986 115.946 249.045 117.242L250.153 117.083C250.276 117.065 250.4 117.112 250.479 117.208C251.269 118.141 251.828 118.573 252.816 118.994C253.057 118.929 253.715 118.714 254.389 118.157C254.476 118.084 254.593 118.059 254.701 118.084C254.812 118.11 254.902 118.186 254.948 118.29L256.596 122.042C256.673 122.216 256.601 122.418 256.434 122.505L254.939 123.29V123.293Z" fill="black"/>
<path d="M254.616 118.796C254.517 118.796 254.42 118.755 254.348 118.678C254.216 118.531 254.227 118.302 254.374 118.17L254.86 117.733C255.008 117.6 255.236 117.612 255.369 117.759C255.502 117.906 255.49 118.134 255.343 118.267L254.857 118.704C254.789 118.765 254.702 118.796 254.616 118.796Z" fill="black"/>
<path d="M112.479 70.3125L96.6738 106.863L110.648 102.256L118.36 114.803L127.841 75.7586L112.479 70.3125Z" stroke="white" stroke-miterlimit="10"/>
<path d="M118.358 115.162C118.235 115.162 118.119 115.098 118.052 114.99L110.49 102.687L96.786 107.204C96.6516 107.247 96.5042 107.21 96.407 107.105C96.3114 107 96.2855 106.849 96.3422 106.72L112.149 70.1695C112.223 69.9965 112.421 69.9107 112.599 69.9738L127.962 75.4183C128.135 75.4797 128.235 75.6625 128.192 75.8421L118.708 114.887C118.674 115.027 118.558 115.134 118.415 115.157C118.396 115.16 118.378 115.162 118.358 115.162ZM110.649 101.897C110.772 101.897 110.889 101.96 110.955 102.068L118.213 113.877L127.416 75.9876L112.677 70.7631L97.3221 106.269L110.535 101.913C110.573 101.9 110.61 101.895 110.649 101.895V101.897Z" fill="black"/>
<path d="M126.4 77.1136L137.215 115.435L145.15 103.053L159.053 107.927L141.758 71.6562L126.4 77.1136Z" stroke="white" stroke-miterlimit="10"/>
<path d="M137.216 115.794C137.198 115.794 137.18 115.794 137.163 115.791C137.023 115.77 136.908 115.67 136.869 115.532L126.055 77.2107C126.003 77.028 126.102 76.8387 126.28 76.774L141.638 71.3166C141.811 71.2552 142.004 71.3344 142.083 71.501L159.378 107.773C159.441 107.904 159.418 108.059 159.321 108.168C159.224 108.276 159.072 108.315 158.934 108.266L145.298 103.487L137.517 115.629C137.451 115.733 137.336 115.794 137.214 115.794H137.216ZM126.839 77.3401L137.344 114.567L144.846 102.859C144.937 102.719 145.112 102.659 145.269 102.714L158.358 107.302L141.573 72.1027L126.839 77.3385V77.3401Z" fill="black"/>
<path d="M157.828 60.9665L153.513 66.1959L155.504 72.6771L149.508 75.8506L148.86 82.5972L142.106 83.2458L138.93 89.2353L132.445 87.2458L127.21 91.558L121.975 87.2458L115.488 89.2353L112.312 83.2442L105.558 82.5972L104.91 75.849L98.9141 72.6771L100.905 66.1959L96.5898 60.9665L100.905 55.7356L98.9141 49.2559L104.91 46.0824L105.558 39.3343L112.312 38.6873L115.488 32.6961L121.975 34.6856L127.21 30.375L132.445 34.6856L138.93 32.6961L142.108 38.6873L148.86 39.3343L149.508 46.0824L155.504 49.2559L153.513 55.7356L157.828 60.9665Z" fill="black"/>
<path d="M127.023 82.812C138.997 82.812 148.704 73.1139 148.704 61.1506C148.704 49.1874 138.997 39.4893 127.023 39.4893C115.049 39.4893 105.342 49.1874 105.342 61.1506C105.342 73.1139 115.049 82.812 127.023 82.812Z" fill="white"/>
<path d="M127.023 83.1728C114.869 83.1728 104.982 73.2948 104.982 61.1523C104.982 49.0098 114.871 39.1318 127.023 39.1318C139.175 39.1318 149.064 49.0098 149.064 61.1523C149.064 73.2948 139.175 83.1728 127.023 83.1728ZM127.023 39.85C115.266 39.85 105.702 49.4061 105.702 61.1523C105.702 72.8985 115.266 82.4546 127.023 82.4546C138.78 82.4546 148.344 72.8985 148.344 61.1523C148.344 49.4061 138.78 39.85 127.023 39.85Z" fill="black"/>
<path d="M125.958 72.1103C125.667 72.1103 125.385 71.9922 125.181 71.7803L116.854 63.1397C116.441 62.7111 116.454 62.0285 116.883 61.6144C117.313 61.2019 117.996 61.2149 118.411 61.6435L125.819 69.3314L136.472 53.8569C136.81 53.3668 137.482 53.2423 137.973 53.5787C138.464 53.9168 138.589 54.588 138.252 55.0781L126.849 71.6412C126.665 71.9081 126.371 72.0779 126.047 72.1054C126.018 72.107 125.989 72.1086 125.958 72.1086V72.1103Z" fill="black"/>
<path d="M212.774 58.3803L208.819 58.9901L206.258 56.2145C205.707 55.6176 204.646 55.933 204.463 56.7482L203.608 60.5396L199.927 62.2024C199.135 62.5599 199.055 63.6145 199.792 63.9881L203.219 65.7221L203.504 69.5248C203.566 70.3416 204.578 70.678 205.216 70.0941L208.19 67.3735L212.048 68.0609C212.878 68.2081 213.582 67.3622 213.24 66.6279L211.65 63.2133L213.749 59.8344C214.201 59.1082 213.624 58.2477 212.772 58.3803H212.774Z" fill="black"/>
<path d="M228.298 49.9186L224.409 50.6885L221.792 47.9808C221.23 47.3985 220.192 47.7592 220.034 48.5906L219.309 52.4564L215.723 54.2793C214.952 54.6707 214.907 55.7415 215.647 56.0893L219.089 57.71L219.49 61.5434C219.576 62.3683 220.587 62.6692 221.201 62.0529L224.053 59.1884L227.887 59.7351C228.711 59.8532 229.38 58.9684 229.019 58.2405L227.341 54.8487L229.309 51.3516C229.731 50.5995 229.135 49.7536 228.298 49.9186Z" fill="black"/>
<path d="M245.158 42.8551L241.308 43.4487L238.859 40.568C238.332 39.9485 237.297 40.2639 237.108 41.1017L236.225 44.9999L232.628 46.6805C231.854 47.0412 231.763 48.1281 232.474 48.5179L235.778 50.3344L236.003 54.2535C236.052 55.0962 237.03 55.4521 237.659 54.8552L240.582 52.0796L244.319 52.8221C245.122 52.9822 245.819 52.1152 245.496 51.3566L244 47.8256L246.084 44.3658C246.533 43.6218 245.984 42.7306 245.156 42.8583L245.158 42.8551Z" fill="black"/>
<path d="M261.418 35.9612L257.597 36.7149L255.03 33.9393C254.477 33.3425 253.457 33.7016 253.303 34.5459L252.585 38.4764L249.061 40.3058C248.303 40.6988 248.258 41.7874 248.983 42.1481L252.36 43.8238L252.751 47.73C252.835 48.5695 253.826 48.8833 254.429 48.2606L257.234 45.3653L260.998 45.9508C261.808 46.0769 262.465 45.1825 262.112 44.4368L260.468 40.9722L262.406 37.4266C262.822 36.6648 262.237 35.7978 261.416 35.9596L261.418 35.9612Z" fill="black"/>
</g>
<defs>
<clipPath id="clip0_1031_1203">
<rect width="297" height="296" fill="white"/>
</clipPath>
</defs>
</svg>
