<svg width="66" height="24" viewBox="0 0 66 24" fill="none" xmlns="http://www.w3.org/2000/svg">
<g id="A A A">
<path id="Vector" d="M51.498 24L56.625 7.38477H60.138L65.265 24H63.1999L61.9182 19.7987H54.8448L53.5631 24H51.498ZM55.3433 17.9948H61.396L58.5477 8.5953H58.2153L55.3433 17.9948Z" fill="#D9D9D9"/>
<path id="Vector_2" d="M27.5605 23.9994L33.8269 3.69189H38.1205L44.3868 23.9994H41.8628L40.2963 18.8645H31.6511L30.0845 23.9994H27.5605ZM32.2603 16.6597H39.658L36.1767 5.17144H35.7706L32.2603 16.6597Z" fill="black"/>
<path id="Vector_3" d="M0 23.9998L7.40565 0H12.4799L19.8855 23.9998H16.9027L15.0513 17.9313H4.83424L2.98283 23.9998H0ZM5.55424 15.3256H14.297L10.1828 1.74856H9.70277L5.55424 15.3256Z" fill="#D9D9D9"/>
</g>
</svg>
