<svg width="146" height="48" viewBox="0 0 146 48" fill="none" xmlns="http://www.w3.org/2000/svg">
<g id="Company logo" clip-path="url(#clip0_1028_791)">
<g id="Vector">
<path d="M50.941 34.7749V20.2199H51.2336L63.1876 34.7749H66.9493V13.4006H62.7696V27.919H62.477L50.5231 13.4006H46.7613V34.7749H50.941ZM78.7778 35.1049C84.295 35.1049 87.6806 31.9519 87.6806 26.6725C87.6806 21.4297 84.295 18.2401 78.7778 18.2401C73.3024 18.2401 69.8751 21.4297 69.8751 26.6725C69.9169 31.9519 73.2606 35.1049 78.7778 35.1049ZM78.7778 32.0252C75.852 32.0252 74.1802 30.0821 74.1802 26.6725C74.1802 23.2995 75.852 21.3198 78.7778 21.3198C81.7036 21.3198 83.3755 23.2995 83.3755 26.6725C83.3755 30.0821 81.7036 32.0252 78.7778 32.0252ZM91.4841 14.6105V18.68H88.5583V21.6131H91.4841V30.4487C91.4841 33.6017 93.156 34.8483 97.4193 34.8483C98.2134 34.8483 99.0076 34.7749 99.6346 34.6649V31.8053C99.133 31.8419 98.7986 31.8786 98.2135 31.8786C96.458 31.8786 95.6638 31.182 95.6638 29.5688V21.6131H99.6346V18.68H95.6638V14.6105H91.4841ZM102.142 34.7749H106.322V18.5701H102.142V34.7749ZM104.232 15.8937C105.612 15.8937 106.74 14.9038 106.74 13.6939C106.74 12.4474 105.612 11.4575 104.232 11.4575C102.853 11.4575 101.724 12.4474 101.724 13.6939C101.724 14.9038 102.853 15.8937 104.232 15.8937ZM117.774 35.1049C123.292 35.1049 126.677 31.9519 126.677 26.6725C126.677 21.4297 123.292 18.2401 117.774 18.2401C112.299 18.2401 108.872 21.4297 108.872 26.6725C108.872 31.9519 112.215 35.1049 117.774 35.1049ZM117.774 32.0252C114.849 32.0252 113.177 30.0821 113.177 26.6725C113.177 23.2995 114.849 21.3198 117.774 21.3198C120.658 21.3198 122.372 23.2995 122.372 26.6725C122.33 30.0821 120.658 32.0252 117.774 32.0252ZM129.143 34.7749H133.323V25.3526C133.323 22.9696 134.911 21.4664 137.377 21.4664C139.927 21.4664 141.097 22.7129 141.097 25.1693V34.7749H145.277V24.2894C145.277 20.4032 143.02 18.2401 138.924 18.2401C136.165 18.2401 134.326 19.34 133.448 21.1731H133.156V18.5701H129.101C129.143 18.5701 129.143 34.7749 129.143 34.7749Z" fill="black"/>
<path fill-rule="evenodd" clip-rule="evenodd" d="M6.68514 12.0326C7.90165 12.9024 8.34166 12.8337 10.6194 12.6964L32.0765 11.5519C32.5424 11.5519 32.1542 11.1399 31.9989 11.0941L28.427 8.82806C27.754 8.37028 26.8222 7.82093 25.0881 7.95826L4.32977 9.30874C3.57916 9.37741 3.42386 9.72075 3.73446 9.97254L6.68514 12.0326ZM7.97929 16.4502V36.4098C7.97929 37.4857 8.57461 37.8748 9.94641 37.8061L33.526 36.593C34.8978 36.5243 35.0531 35.7918 35.0531 34.922V15.0998C35.0531 14.23 34.6648 13.7493 33.8366 13.818L9.1958 15.0998C8.28989 15.1684 7.97929 15.5804 7.97929 16.4502ZM31.2482 17.5261C31.4035 18.1212 31.2482 18.7392 30.5753 18.8079L29.4364 19.0139V33.7547C28.4529 34.2125 27.547 34.4871 26.7705 34.4871C25.554 34.4871 25.2434 34.1438 24.3374 33.1367L16.909 22.8135V32.7933L19.2643 33.2511C19.2643 33.2511 19.2643 34.4642 17.3749 34.4642L12.1465 34.7389C11.9912 34.4642 12.1465 33.8005 12.6641 33.6631L14.0359 33.3198V20.1355L12.1465 19.9981C11.9912 19.403 12.3794 18.5332 13.4406 18.4645L19.0573 18.1212L26.7963 28.5588V19.3343L24.8292 19.1283C24.6739 18.3959 25.2951 17.8465 26.0457 17.7778L31.2482 17.5261ZM2.5956 7.47759L24.208 6.08133C26.8481 5.87532 27.547 6.01266 29.2035 7.08847L36.0884 11.3688C37.2272 12.1013 37.6155 12.3073 37.6155 13.1084V36.6159C37.6155 38.0808 37.0202 38.9506 34.8978 39.0879L9.817 40.4384C8.21224 40.5071 7.46163 40.3011 6.63337 39.3626L1.53439 33.5258C0.628482 32.45 0.240234 31.6488 0.240234 30.7104V9.81231C0.240234 8.59917 0.86143 7.61492 2.5956 7.47759Z" fill="black"/>
</g>
</g>
<defs>
<clipPath id="clip0_1028_791">
<rect width="145.551" height="48" fill="white" transform="translate(0.240234)"/>
</clipPath>
</defs>
</svg>
