<svg width="112" height="20" viewBox="0 0 112 20" fill="currentColor" xmlns="http://www.w3.org/2000/svg">
<g id="Positivus">
<path d="M0.0878906 19.3337V0.967773H7.38179C8.50124 0.967773 9.49825 1.19516 10.3728 1.64994C11.2649 2.08722 11.9558 2.71691 12.4455 3.53901C12.9528 4.34361 13.2064 5.31438 13.2064 6.45132V6.7924C13.2064 7.92934 12.944 8.90886 12.4193 9.73095C11.9121 10.553 11.2211 11.1827 10.3466 11.62C9.47201 12.0573 8.48375 12.2759 7.38179 12.2759H2.92149V19.3337H0.0878906ZM2.92149 9.70471H7.09319C8.09019 9.70471 8.88605 9.44234 9.48076 8.9176C10.0755 8.39286 10.3728 7.67571 10.3728 6.76616V6.50379C10.3728 5.57675 10.0755 4.85086 9.48076 4.32612C8.88605 3.80138 8.09019 3.53901 7.09319 3.53901H2.92149V9.70471Z" fill="currentColor"/>
<path d="M21.6775 19.701C20.3831 19.701 19.2287 19.4387 18.2142 18.9139C17.2172 18.3717 16.4301 17.6021 15.8529 16.6051C15.2757 15.6081 14.9871 14.4274 14.9871 13.0631V12.6695C14.9871 11.3052 15.2757 10.1333 15.8529 9.15374C16.4301 8.15673 17.2172 7.38711 18.2142 6.84487C19.2287 6.30264 20.3831 6.03153 21.6775 6.03153C22.9719 6.03153 24.1263 6.30264 25.1408 6.84487C26.1553 7.38711 26.9512 8.15673 27.5284 9.15374C28.1056 10.1333 28.3942 11.3052 28.3942 12.6695V13.0631C28.3942 14.4274 28.1056 15.6081 27.5284 16.6051C26.9512 17.6021 26.1553 18.3717 25.1408 18.9139C24.1263 19.4387 22.9719 19.701 21.6775 19.701ZM21.6775 17.2872C22.8669 17.2872 23.8289 16.9112 24.5636 16.159C25.3157 15.3894 25.6918 14.3312 25.6918 12.9843V12.7482C25.6918 11.4014 25.3245 10.3519 24.5898 9.59977C23.8552 8.83015 22.8844 8.44534 21.6775 8.44534C20.5056 8.44534 19.5436 8.83015 18.7914 9.59977C18.0568 10.3519 17.6895 11.4014 17.6895 12.7482V12.9843C17.6895 14.3312 18.0568 15.3894 18.7914 16.159C19.5436 16.9112 20.5056 17.2872 21.6775 17.2872Z" fill="currentColor"/>
<path d="M37.0586 19.701C35.4144 19.701 34.0501 19.3337 32.9656 18.5991C31.8811 17.8644 31.2165 16.7537 30.9716 15.267L33.4903 14.6635C33.6303 15.3807 33.8664 15.9491 34.1987 16.3689C34.5311 16.7887 34.9421 17.0861 35.4319 17.261C35.9391 17.4359 36.4814 17.5234 37.0586 17.5234C37.9156 17.5234 38.5716 17.3572 39.0263 17.0249C39.4986 16.6925 39.7348 16.264 39.7348 15.7392C39.7348 15.2145 39.5161 14.8297 39.0788 14.5848C38.6415 14.3399 37.9944 14.1388 37.1373 13.9814L36.2452 13.8239C35.3707 13.6665 34.5748 13.4391 33.8576 13.1418C33.1405 12.8444 32.572 12.4334 32.1522 11.9086C31.7324 11.3839 31.5226 10.7105 31.5226 9.88837C31.5226 8.66398 31.9773 7.71944 32.8869 7.05477C33.7964 6.37261 35.0033 6.03153 36.5076 6.03153C37.9594 6.03153 39.1488 6.36386 40.0758 7.02853C41.0204 7.67572 41.6326 8.55903 41.9124 9.67848L39.3937 10.3869C39.2362 9.59977 38.9039 9.04879 38.3967 8.73394C37.8894 8.40161 37.2597 8.23544 36.5076 8.23544C35.773 8.23544 35.1957 8.37537 34.7759 8.65523C34.3562 8.9176 34.1463 9.29367 34.1463 9.78342C34.1463 10.3082 34.3474 10.693 34.7497 10.9379C35.1695 11.1827 35.7292 11.3664 36.4289 11.4888L37.3472 11.6463C38.2742 11.8037 39.1226 12.0223 39.8922 12.3022C40.6618 12.582 41.2652 12.9843 41.7025 13.5091C42.1573 14.0338 42.3847 14.7335 42.3847 15.6081C42.3847 16.9024 41.9037 17.9082 40.9417 18.6253C39.9796 19.3425 38.6853 19.701 37.0586 19.701Z" fill="currentColor"/>
<path d="M45.5434 19.3337V6.39884H48.2458V19.3337H45.5434ZM46.9077 4.64096C46.383 4.64096 45.9369 4.47479 45.5696 4.14246C45.2198 3.79263 45.0449 3.3466 45.0449 2.80437C45.0449 2.26214 45.2198 1.82485 45.5696 1.49252C45.9369 1.14269 46.383 0.967773 46.9077 0.967773C47.45 0.967773 47.896 1.14269 48.2458 1.49252C48.5956 1.82485 48.7705 2.26214 48.7705 2.80437C48.7705 3.3466 48.5956 3.79263 48.2458 4.14246C47.896 4.47479 47.45 4.64096 46.9077 4.64096Z" fill="currentColor"/>
<path d="M57.1102 19.3337C56.3231 19.3337 55.6934 19.0976 55.2212 18.6253C54.7664 18.153 54.539 17.5234 54.539 16.7362V8.68147H50.9708V6.39884H54.539V2.1222H57.2414V6.39884H61.0983V8.68147H57.2414V16.264C57.2414 16.7887 57.4863 17.0511 57.9761 17.0511H60.6785V19.3337H57.1102Z" fill="currentColor"/>
<path d="M64.2732 19.3337V6.39884H66.9756V19.3337H64.2732ZM65.6375 4.64096C65.1128 4.64096 64.6667 4.47479 64.2994 4.14246C63.9496 3.79263 63.7747 3.3466 63.7747 2.80437C63.7747 2.26214 63.9496 1.82485 64.2994 1.49252C64.6667 1.14269 65.1128 0.967773 65.6375 0.967773C66.1797 0.967773 66.6258 1.14269 66.9756 1.49252C67.3254 1.82485 67.5003 2.26214 67.5003 2.80437C67.5003 3.3466 67.3254 3.79263 66.9756 4.14246C66.6258 4.47479 66.1797 4.64096 65.6375 4.64096Z" fill="currentColor"/>
<path d="M73.9772 19.3337L69.6218 6.39884H72.4817L75.9187 17.3397H76.3385L79.7756 6.39884H82.6354L78.2801 19.3337H73.9772Z" fill="currentColor"/>
<path d="M90.2165 19.5698C89.237 19.5698 88.3624 19.3512 87.5928 18.9139C86.8232 18.4766 86.2197 17.8557 85.7824 17.0511C85.3451 16.2465 85.1265 15.2845 85.1265 14.165V6.39884H87.8289V13.9814C87.8289 15.1008 88.1088 15.9316 88.6685 16.4739C89.2282 16.9986 90.0066 17.261 91.0036 17.261C92.1056 17.261 92.9889 16.8937 93.6535 16.159C94.3357 15.4069 94.6768 14.3312 94.6768 12.9319V6.39884H97.3792V19.3337H94.7293V17.3922H94.3095C94.0646 17.9169 93.6273 18.4154 92.9976 18.8877C92.3679 19.3425 91.4409 19.5698 90.2165 19.5698Z" fill="currentColor"/>
<path d="M106.674 19.701C105.03 19.701 103.665 19.3337 102.581 18.5991C101.496 17.8644 100.832 16.7537 100.587 15.267L103.106 14.6635C103.246 15.3807 103.482 15.9491 103.814 16.3689C104.146 16.7887 104.557 17.0861 105.047 17.261C105.554 17.4359 106.097 17.5234 106.674 17.5234C107.531 17.5234 108.187 17.3572 108.642 17.0249C109.114 16.6925 109.35 16.264 109.35 15.7392C109.35 15.2145 109.131 14.8297 108.694 14.5848C108.257 14.3399 107.61 14.1388 106.753 13.9814L105.861 13.8239C104.986 13.6665 104.19 13.4391 103.473 13.1418C102.756 12.8444 102.187 12.4334 101.768 11.9086C101.348 11.3839 101.138 10.7105 101.138 9.88837C101.138 8.66398 101.593 7.71944 102.502 7.05477C103.412 6.37261 104.619 6.03153 106.123 6.03153C107.575 6.03153 108.764 6.36386 109.691 7.02853C110.636 7.67572 111.248 8.55903 111.528 9.67848L109.009 10.3869C108.852 9.59977 108.519 9.04879 108.012 8.73394C107.505 8.40161 106.875 8.23544 106.123 8.23544C105.388 8.23544 104.811 8.37537 104.391 8.65523C103.971 8.9176 103.762 9.29367 103.762 9.78342C103.762 10.3082 103.963 10.693 104.365 10.9379C104.785 11.1827 105.345 11.3664 106.044 11.4888L106.962 11.6463C107.89 11.8037 108.738 12.0223 109.507 12.3022C110.277 12.582 110.881 12.9843 111.318 13.5091C111.773 14.0338 112 14.7335 112 15.6081C112 16.9024 111.519 17.9082 110.557 18.6253C109.595 19.3425 108.301 19.701 106.674 19.701Z" fill="currentColor"/>
</g>
</svg>
